<?xml version="1.0" encoding="utf-8"?>
<!-- Generator: Adobe Illustrator 19.1.0, SVG Export Plug-In . SVG Version: 6.00 Build 0)  -->
<svg version="1.1" id="Layer_1" xmlns="http://www.w3.org/2000/svg" xmlns:xlink="http://www.w3.org/1999/xlink" x="0px" y="0px"
	 viewBox="0 0 478.7 74.4" style="enable-background:new 0 0 478.7 74.4;" xml:space="preserve">
<style type="text/css">
	.st0{fill:#FFFFFF;}
</style>
<g>
	<path class="st0" d="M29.6,71.6H2.9V2.7h26.7c17,0,23.3,8.6,23.3,17.9v33.1C52.9,62.9,46.6,71.6,29.6,71.6z M37.4,24.9
		c0-5.4-1.9-8.4-9.6-8.4h-9.3v41.4h9.3c7.8,0,9.6-3,9.6-8.4V24.9z"/>
	<path class="st0" d="M121.8,71.6h-16.1L102,58.2H78.9l-3.7,13.4H59.1l21-68.9h20.7L121.8,71.6z M82.4,45.2h15.8l-7.9-28.9
		L82.4,45.2z"/>
	<path class="st0" d="M154.2,50.2h-9.1v21.4h-15.5V2.7h28.6c16.8,0,23,6.6,23,19.5v8.5c0,8.6-3.1,14.4-10,17.3l16.7,23.6h-18.4
		L154.2,50.2z M165.7,23.7c0-5.2-2-7.2-8.3-7.2h-12.3v20.3h12.3c6.6,0,8.3-2.4,8.3-7.5V23.7z"/>
	<path class="st0" d="M196.1,2.7h15.5v68.9h-15.5V2.7z M213.6,36.5l18.6-33.7h17.5l-19.3,33.7l20.8,35.2h-17.5L213.6,36.5z"/>
	<path class="st0" d="M318.1,26.3v45.3h-14.8V2.7h19L345,50.2V2.7h14.8v68.9h-19.1L318.1,26.3z"/>
	<path class="st0" d="M373.2,71.6V2.7h43.3v13.8h-27.8v12.6h25.6v13.8h-25.6v15h27.8v13.8H373.2z"/>
	<path class="st0" d="M457,16.5v55.1h-15.5V16.5H423V2.7h52.5v13.8H457z"/>
</g>
</svg>
