<?xml version="1.0" encoding="utf-8"?>
<!-- Generator: Adobe Illustrator 19.1.0, SVG Export Plug-In . SVG Version: 6.00 Build 0)  -->
<svg version="1.1" id="Layer_1" xmlns="http://www.w3.org/2000/svg" xmlns:xlink="http://www.w3.org/1999/xlink" x="0px" y="0px"
	 viewBox="0 0 372.1 136.9" style="enable-background:new 0 0 372.1 136.9;" xml:space="preserve">
<style type="text/css">
	.st0{fill:#CCCCCC;}
	.st1{fill:#FFFFFF;}
</style>
<g>
	<path class="st1" d="M17.6,54.6c5.1,0,9.5,0,13.9,0C33.5,40.5,28,30,18.1,27C41.4-1.1,90.2,0,112.7,27
		c-9.2,3.6-13.9,11.1-16.4,20.1c-5.2,18.6-5.7,37.1,2.2,55.2c2.7,6.3,7.1,11.1,13.3,14.2c-18.2,23.5-65,30.9-93.7,0.1
		c8.6-2.5,14-8.1,16-16.6c2.2-9.6,0.1-18.3-6.7-25.4c-4.1-4.3-9.2-7.6-13.8-11.4C9.1,59.4,4.5,55.7,5,48.9c0.2-3.6,1.2-6.8,5.3-7.2
		c4.3-0.5,5.7,2.7,6.4,6.2C17.1,49.9,17.2,52,17.6,54.6z M55.6,63.7c0-11.7,0-23.1,0-34.7c-5.6,0-10.5,0-15.4,0
		c0,29.1,0,57.8,0,86.7c5.3,0,10.1,0,15.7,0c0-12.6,0-24.6,0-36.7c5.3,0,9.9,0,15,0c0,12.4,0,24.4,0,36.8c5.7,0,10.7,0,15.9,0
		c0-29.2,0-57.9,0-86.8c-5.4,0-10.4,0-16,0c0,11.7,0,23,0,34.6C65.9,63.7,61.3,63.7,55.6,63.7z"/>
	<path class="st1" d="M217.5,43.5c-5,0-9.1,0-13.9,0c-3,23.4-6,46.7-9.1,70.5c-4.4,0-8.6,0-13.1,0c-2.4-17.4-4.7-34.7-7-52.1
		c-0.5,0-1,0-1.5,0c-2.6,17.4-5.1,34.8-7.7,52.3c-4.4,0-8.2,0-12.6,0c-3.7-27.5-7.4-54.9-11.1-82.8c4.4,0,8.4,0,12.9,0
		c1.8,16.2,3.6,32.3,5.4,48.4c0.5,0,1,0,1.5,0c2.4-16,4.7-32.1,7.1-48.4c4.3,0,8.4,0,13,0c2.2,15.6,4.4,31.2,6.6,46.7
		c0.4,0,0.9,0,1.3,0.1c2-15.4,4-30.8,6.1-46.7c22,0,43.8,0,66,0c0,27.5,0,54.8,0,82.5c-4.5,0-9.1,0-14.4,0c0-23.2,0-46.6,0-70.3
		c-5.3,0-9.9,0-15,0c0,23.4,0,46.6,0,70.3c-5,0-9.6,0-14.6,0C217.5,90.6,217.5,67.3,217.5,43.5z"/>
	<path class="st1" d="M270.2,114c0-27.8,0-55.1,0-82.8c6.4,0,12.7,0,19.5,0c2.2,13.7,4.4,27.2,6.6,40.7c0.4,0.1,0.9,0.1,1.3,0.2
		c2.3-13.5,4.7-27,7-40.8c6.3,0,12.3,0,18.8,0c0,27.4,0,54.8,0,82.6c-3.7,0-7.6,0-12.2,0c0-19.2,0-38.6,0-58
		c-0.6-0.1-1.1-0.1-1.7-0.2c-3.3,19.4-6.6,38.7-9.9,58.3c-2.6,0-4.8,0-7.7,0c-3.4-20-6.8-40-10.2-59.9c-0.5,0-1,0-1.4,0.1
		c0,19.9,0,39.8,0,59.9C276.5,114,273.6,114,270.2,114z"/>
	<path class="st1" d="M365.6,31.3c0,3.9,0,7.6,0,11.8c-6,0-12.1,0-18.6,0c0,7.6,0,14.7,0,22.4c4.4,0,8.8,0,13.5,0
		c0,4.6,0,8.4,0,12.7c-4.5,0-8.7,0-13.5,0c0,8.1,0,15.8,0,24.1c6.3,0,12.7,0,19.5,0c0,4.2,0,7.8,0,11.7c-11.2,0-22.5,0-34,0
		c0-27.5,0-54.9,0-82.7C343.6,31.3,354.4,31.3,365.6,31.3z"/>
	<path class="st1" d="M121.3,101.2c-6.6-1.2-8.6-5.3-9.9-9.6c-4-13.2-4.1-26.4-0.2-39.7c0.3-0.9,0.6-1.9,1.1-2.8
		c1.6-3.2,3.2-6.4,7.3-6.5c4.4-0.2,6,3.3,7.2,6.5c5.4,14.9,5.9,29.9,0,44.7C125.6,96.7,122.9,99,121.3,101.2z"/>
</g>
</svg>
