<?xml version="1.0" encoding="utf-8"?>
<!-- Generator: Adobe Illustrator 19.1.0, SVG Export Plug-In . SVG Version: 6.00 Build 0)  -->
<svg version="1.1" id="Layer_1" xmlns="http://www.w3.org/2000/svg" xmlns:xlink="http://www.w3.org/1999/xlink" x="0px" y="0px"
	 viewBox="0 0 1304 546" style="enable-background:new 0 0 1304 546;" xml:space="preserve">
<style type="text/css">
	.st0{fill:#FFFFFF;}
	.st1{fill:#CCCCCC;}
	.st2{fill:#2D373B;}
	.st3{fill:#232222;}
	.st4{fill:#CDCCCB;}
	.st5{fill:#D2D0CD;}
	.st6{fill:#333E48;}
</style>
<polygon class="st0" points="109.4,312.8 92,312.8 12.5,116.9 80.6,116.9 125.9,232.4 131.4,232.4 163.6,116.9 224.1,116.9 
	180.5,241.7 "/>
<path class="st0" d="M350.9,314.1c-10.2,2.1-18.6,2.5-26.2,2.5c-68.6,0-101.6-43.2-101.6-100.7c0-56.3,31.3-103.2,102-103.2
	c71.1,0,101.1,47.4,101.1,99.9c0,8.5-0.8,19.5-2.5,28.8L350.9,314.1z M293.8,215.1c0,39.4,8,57.5,30.5,57.5
	c22.9,0,31.3-18.2,31.3-57.5c0-39.3-9.7-58.4-30.9-58.4C303.1,156.7,293.8,175.7,293.8,215.1z"/>
<path class="st0" d="M565.9,163c-34.3,0-50.4,13.1-50.4,51.6c0,42.7,19.9,51.6,45.3,51.6c9.3,0,22-1.3,34.7-5.5v5.5l-50.4,50.4h-0.4
	c-66,0-99.4-27.5-99.4-96.5c0-76.6,43.6-107.5,108.8-107.5c7.6,0,24.1,0.4,41.5,5.5v45.3l-3.8,3.8C579.9,163.9,571.9,163,565.9,163z
	"/>
<path class="st0" d="M774.5,316.6h-1.3c-23.3,0-43.6-7.2-46.5-37.7l-31.3,31.7c-8,3.8-17.4,5.9-28.4,5.9
	c-28.8,0-54.6-17.8-54.6-51.6c0-42.7,46.5-59.7,114.3-60.5v-23.7c0-16.1-7.6-24.1-19-24.1c-11.8,0-19,8-19,22.4v0.8l-3.8,3.8H626
	l-3.8-3.8V174c0-43.2,42.7-61.4,84.6-61.4c48.2,0,86.3,20.3,86.3,65.6v83.4c0,11.4,3,16.1,17.3,14v5.1L774.5,316.6z M726.7,231.1
	C695,232.4,681,243.4,681,257c0,16.9,14,22,26.2,22c5.5,0,13.1-1.7,19.5-5.5V231.1z"/>
<path class="st0" d="M918.8,316.2c-2.5,0.4-5.5,0.4-8,0.4c-48.2,0-69-21.2-69-53.3V160.9H813v-17.3l80.4-80.4h14.8v53.7h62.5v12.3
	l-31.6,31.7h-31v65.2c0,28.8,5.1,38.1,30.5,38.1c9.7,0,20.7-2.1,32.2-5.5v5.5L918.8,316.2z"/>
<polygon class="st0" points="1011.4,84.3 994,84.3 994,22.9 1060.5,22.9 1060.5,35.2 "/>
<polygon class="st0" points="1011.4,312.8 994,312.8 994,116.9 1060.5,116.9 1060.5,263.7 "/>
<polygon class="st0" points="1175.2,312.8 1157.8,312.8 1078.3,116.9 1146.4,116.9 1191.7,232.4 1197.2,232.4 1229.3,116.9 
	1289.8,116.9 1246.3,241.7 "/>
<path class="st0" d="M1166.2,483.8c0,20.7-18,33.4-43,33.4s-41.6-14.3-41.6-35.1v-8.8h21.9v8.8c0,11.6,9.4,16.7,20.4,16.7
	c10.8,0,19.2-4.6,19.2-13.8v-1.2c0-21.6-59.9-15.2-59.9-54.6v-1.7c0-19.7,15.7-31.7,40.6-31.7c25,0,40.6,14.3,40.6,35.1v8.8h-21.9
	v-8.8c0-10.5-7.9-16.7-18.7-16.7c-11,0-17.5,5.1-17.5,13.3v1.2c0,22.3,59.9,14,59.9,53.4V483.8z M926.4,397.5h-21.9l-25.8,48.2
	l-26.6-48.2h-24.4v118h21.9v-48.6c0-9.1-0.3-19.6-1-32l19.4,36.8h18.4l19.2-35.4c-0.7,12-1,21.9-1,30.7v48.6h23.1v-118H926.4z
	 M620,497.1v-99.6h-23.1v118h73.3v-18.4H620z M382.8,515.5h23.1v-118h-23.1V515.5z M218.1,415.8v-18.4h-75v118h23.1v-46.2h42.2
	v-18.2h-42.2v-35.2H218.1z"/>
</svg>
