<?xml version="1.0" encoding="utf-8"?>
<!-- Generator: Adobe Illustrator 19.1.0, SVG Export Plug-In . SVG Version: 6.00 Build 0)  -->
<svg version="1.1" id="Layer_1" xmlns="http://www.w3.org/2000/svg" xmlns:xlink="http://www.w3.org/1999/xlink" x="0px" y="0px"
	 viewBox="0 0 581.9 266.4" style="enable-background:new 0 0 581.9 266.4;" xml:space="preserve">
<style type="text/css">
	.st0{fill:#CCCCCC;}
</style>
<g>
	<path class="st0" d="M121.3,71.2c-6.6,0-12.7,0-18.9,0c10.3-40.9,75.8-76.9,132.2-70.5c62.5,7.1,110.2,55.7,115.9,119.1
		c6.1,67.5-35.5,127.9-100.7,142.9c-65.4,15.1-126.5-18-149.9-71.8c6.2,0,12.2,0,18.9,0c23.8,36.3,57.4,57,102.1,56.6
		c34.1-0.3,62.6-14.4,84.9-39.8C347.9,160.1,341.1,86,295,47C241.2,1.6,162.5,11.3,121.3,71.2z"/>
	<path class="st0" d="M371.1,175.9c0-28.4,0-56.2,0-84.4c7.7,0,15,0,23.2,0c8.6,18,17.4,36.5,26.1,54.9c0.5-0.1,0.9-0.2,1.4-0.3
		c0-18,0-35.9,0-54.5c6.5,0,12.2,0,18.2,0c0,28.1,0,55.8,0,84.2c-7.5,0-15.1,0-23.6,0c-8.4-16.9-17.1-34.5-25.8-52
		c-0.4,0-0.8,0-1.2,0c0,17.2,0,34.4,0,52.1C382.8,175.9,377.2,175.9,371.1,175.9z"/>
	<path class="st0" d="M207.3,147.4c6.7,9.6,13,18.6,20,28.5c-8.3,0-15.2,0-22.7,0c-5.9-8.3-12-16.8-18.2-25.5c-3.7,0-7.2,0-11.6,0
		c0,8.6,0,16.8,0,25.4c-6.6,0-12.3,0-18.5,0c0-28.2,0-56,0-84c1.1-0.3,2.1-0.9,3.1-0.9c12.9,0,25.9-0.3,38.8,0.2
		c13.7,0.6,21,8.8,21.3,22.5c0.1,3.7-0.1,7.4,0,11.2C219.6,134.3,216.7,142.1,207.3,147.4z M175.2,133c6.3,0,12.2,0.6,17.9-0.3
		c2.5-0.4,5.8-3.5,6.4-6c1-4.1,0.8-8.7,0-13c-0.4-2-3.1-4.9-4.9-5.1c-6.4-0.6-12.8-0.2-19.4-0.2C175.2,116.9,175.2,124.7,175.2,133z
		"/>
	<path class="st0" d="M0,176.3c0-28.6,0-56.3,0-84.5C1.5,91.5,2.9,91,4.3,91c10.7,0,21.5-0.2,32.2,0c15.8,0.3,24.3,8.9,24.5,24.5
		c0.1,11.2-0.4,22.4,0.1,33.5c0.8,19.3-9.7,25.4-24.2,27.1c-1.5,0.2-3.1,0.1-4.6,0.1C21.8,176.3,11.3,176.3,0,176.3z M18.7,108.8
		c0,16.7,0,33.1,0,50.4c4.7,0,9,0.3,13.3-0.1c7.2-0.6,9.7-3.4,9.8-10.5c0.1-7.2,0-14.5,0-21.7c0-18.4-2-20.2-20.5-18.7
		C20.7,108.1,20.1,108.4,18.7,108.8z"/>
	<path class="st0" d="M94.4,91.2c8.8,0,17,0,26,0c8.5,28.1,17.1,56.1,25.8,84.8c-7.2,0-13.2,0-19.8,0c-1.7-5.2-3.3-10.6-5.1-16.1
		c-9.4,0-18.6,0-28,0c-1.6,5.4-3.1,10.6-4.7,15.9c-6.5,0-12.7,0-19.9,0C77.5,147.2,85.9,119.3,94.4,91.2z M116.9,142.9
		c-3.2-11.5-6-21.8-8.8-32.1c-0.5,0.1-0.9,0.1-1.4,0.2c-2.8,10.4-5.7,20.8-8.7,31.9C104.6,142.9,110.3,142.9,116.9,142.9z"/>
	<path class="st0" d="M509.5,91.7c0,5.6,0,10.6,0,16.3c-11.4,0-22.2,0-33.5,0c0,5.5,0,10.2,0,15.9c10.3,0,20.5,0,30.8,0
		c0,6.1,0,11.3,0,17.1c-10.5,0-20.5,0-30.8,0c0,6.3,0,11.9,0,18.5c11.3,0,22.4,0,33.7,0c0,5.9,0,10.9,0,16.4c-17.7,0-35.1,0-52.8,0
		c0-28.1,0-55.9,0-84.1C474.4,91.7,491.8,91.7,509.5,91.7z"/>
	<path class="st0" d="M559.4,175.9c-6.7,0-12.3,0-18.6,0c0-22.6,0-44.9,0-67.7c-7.6,0-14.6,0-22.1,0c0-5.7,0-10.8,0-16.6
		c20.8,0,41.7,0,63.3,0c0,5.1,0,10.2,0,16.1c-7.2,0-14.3,0-22.5,0C559.4,130.9,559.4,153.3,559.4,175.9z"/>
	<path class="st0" d="M259,132.6c7.6-13.8,15.2-27.6,22.8-41.6c6.9,0,13.7,0,21.9,0c-8.1,14.3-15.8,27.8-23.5,41.5
		c8.3,14.2,16.6,28.3,25.3,43.2c-7.5,0-14.1,0-21.9,0C275.8,162,267.5,147.5,259,132.6z"/>
	<path class="st0" d="M238.3,91.3c6.1,0,11.7,0,17.9,0c0,28.2,0,56.1,0,84.5c-5.9,0-11.6,0-17.9,0
		C238.3,147.8,238.3,119.9,238.3,91.3z"/>
</g>
</svg>
