<?xml version="1.0" encoding="utf-8"?>
<!-- Generator: Adobe Illustrator 19.1.0, SVG Export Plug-In . SVG Version: 6.00 Build 0)  -->
<svg version="1.1" id="Layer_1" xmlns="http://www.w3.org/2000/svg" xmlns:xlink="http://www.w3.org/1999/xlink" x="0px" y="0px"
	 viewBox="0 0 406.6 74.1" style="enable-background:new 0 0 406.6 74.1;" xml:space="preserve">
<style type="text/css">
	.st0{fill:#FFFFFF;}
</style>
<path class="st0" d="M387.1,36.4v1.1c0,12.7,0.8,18.2,7.2,18.2c6.4,0,9.7-4.6,9.7-12.2v-0.7h2.5v0.4c0,7.3-3.7,14.4-12.2,14.4
	c-10.6,0-17.1-7.4-17.1-20.2c0-12.1,5.9-20.8,15.4-20.8c9.1,0,14,7.6,14,17.6v2.2H387.1z M376.5,24.8c-1.9,0-3.8-1.6-3.8-3.8
	c0-1.8,0.9-2.2,0.9-3.5c0-0.8-0.6-1.7-1.7-1.7c-1.7,0-2.5,1-3.1,3.4c3.2,2.8,5.3,6.4,5.3,11.7c0,9.9-5.8,14.4-13.8,14.4
	c-3.9,0-7.5-1.8-9.4-3.8c-1,0.6-2.2,2-2.2,3.1c0,2.2,2,3.1,5.9,3.2l9.4,0.2c9.2,0.2,13.6,5.1,13.6,11.8c0,7.1-5.5,14.1-17.8,14.1
	c-9,0-15.7-3.6-15.7-9.8c0-3.9,3.4-7.4,9.1-8.2c-4.2-0.2-8.4-3.6-8.4-8.1c0-3.4,1.8-5.7,4.9-7.4c-2.2-2.5-3.1-5.7-3.1-9.7
	c0-8.6,5.5-14.4,13.6-14.4c3.5,0,5.9,0.8,7.3,1.8c0.5-2.8,3.1-5.1,6.2-5.1c3.8,0,6.6,3,6.6,6.9C380.4,23,378.5,24.8,376.5,24.8z
	 M327.3,57.2v-2h2.8c1.5,0,2.3-0.8,1.9-2.5l-3.5-15.4h-11.8l-3.1,13.1c-0.8,3.1,0,4.8,3.1,4.8h1.7v2h-12.5v-2.1h0.3
	c2.7,0,3.8-1.3,4.6-4.5l12.5-50.5h7.2l12.4,52.2c0.5,2,1.8,2.8,3.5,2.8h1.4v2H327.3z M302.9,25.3c-1.8,0-3.8-1.4-3.8-3.7
	c0-2.6,1.6-2.5,1.6-4.2c0-1.1-0.5-1.8-2.1-1.8c-1.9,0-3.3,2.5-3.4,5.1c2.4,2.5,3.8,6.1,3.8,10.3c0,9.9-5.8,14.4-13.8,14.4
	c-3.8,0-7.2-1.5-9.2-3.3c-1,0.6-1.8,1.8-1.8,2.9c0,1.6,1.3,2.8,5.2,2.9l9.4,0.2c10.4,0.2,14.3,5,14.3,12.1c0,7.1-5.4,13.9-17.7,13.9
	c-9,0-15.7-3.6-15.7-9.8c0-3.9,3.4-7.4,9.1-8.2c-4.2-0.2-8.4-3.8-8.4-7.9c0-2.9,1.5-5.5,4.5-7.2c-2.1-2.5-3.4-6-3.4-10
	c0-8.6,5.5-14.4,13.7-14.4c3.7,0,6.8,1.1,8.7,2.8c0.5-3.8,2.8-6,6.5-6c3.7,0,6.5,2.6,6.5,6.8C307,23,305.3,25.3,302.9,25.3z
	 M224.9,12.8c-2.9,0-5.4-2.4-5.4-5.3c0-2.9,2.5-5.4,5.4-5.4c2.9,0,5.4,2.5,5.4,5.4C230.3,10.4,227.8,12.8,224.9,12.8z M253.1,57.2
	v-2h2.2c1.3,0,1.7-0.6,1.7-1.9V25.6c0-4.6-0.8-6.5-3.1-6.5c-3.3,0-6.2,3.7-6.2,12.7v21c0,2.1,0.8,2.5,1.9,2.5h1.9v2h-16.6v-2h1.8
	c1.3,0,1.7-0.6,1.7-1.9V21.9c0-1.9-0.7-2.9-2.7-2.9h-1.9v-2h13.4v7.2c1.7-5.5,4.1-7.8,9.6-7.8c6.6,0,9.6,4.4,9.6,9.8v26.3
	c0,2,1,2.7,2.3,2.7h2.4v2H253.1z M215.9,57.2v-2h2.7c1.3,0,1.7-0.6,1.7-1.9V21.9c0-1.9-0.7-2.9-2.7-2.9h-1.9v-2h13.9v35.8
	c0,2.1,0.8,2.5,1.9,2.5h1.9v2H215.9z M181.2,12.8c-2.9,0-5.4-2.4-5.4-5.3c0-2.9,2.5-5.4,5.4-5.4c2.9,0,5.4,2.5,5.4,5.4
	C186.6,10.4,184.1,12.8,181.2,12.8z M203.3,57.7c-3.5,0-6.1-1.2-8.4-3.5c-0.4-0.4-0.7-0.5-0.8-0.5c-0.2,0-0.4,0.3-0.5,0.7l-1.1,3
	h-1.5v-17l1.8-0.1c1.1,8.7,3.8,15.6,10.6,15.6c3.9,0,7.1-3,7.1-6.7c0-8.6-19.6-8.2-19.6-21c0-6.6,4.2-11.7,12.1-11.7
	c3.1,0,6,1.3,7.8,3.3c0.2,0.2,0.5,0.5,0.6,0.5c0.2,0,0.4-0.2,0.5-0.5l1.2-3.2h1.5v14.2h-1.9c-1.1-7.9-4.4-12.5-9.7-12.5
	c-3.3,0-6,2.5-6,5.3c0,9,20,7.3,20,21.3C216.8,52.2,211.4,57.7,203.3,57.7z M172.2,57.2v-2h2.7c1.3,0,1.7-0.6,1.7-1.9V21.9
	c0-1.9-0.7-2.9-2.7-2.9H172v-2h13.9v35.8c0,2.1,0.8,2.5,1.9,2.5h1.9v2H172.2z M165,57.8c-5.3,0-9.2-3.5-9.2-9.5V19h-3.9v-2h2.4
	c1.5,0,1.9-0.4,2.1-1.5c0.4-3.2,0.7-8.2,0.7-11.6h8.1V17h5.8v2H165v29.3c0,5.8,0.8,7.1,2.8,7.1c2.5,0,4-2.9,4-9.8v-5.1h2v5.1
	C173.8,51.8,172.9,57.8,165,57.8z M148.3,30.8c-2.5,0-4.7-2-4.7-4.7c0-3.1,3.2-4.1,3.2-5.6c0-0.8-0.5-1.6-1.6-1.6
	c-2.6,0-4.6,3.1-4.6,12v21.9c0,2.1,0.8,2.5,1.9,2.5h3.8v2h-19.5v-2h2.4c1.3,0,2.1-0.8,2.1-2.2V21.9c0-1.9-0.7-2.9-2.7-2.9h-1.9v-2
	h13.4v6.3c0.5-4.2,2.8-6.4,6-6.4c4.5,0,7.4,3.5,7.4,7.7C153.5,28.4,151,30.8,148.3,30.8z M102.1,19c-2,0-3,0.9-3.5,3.1l-8.8,35.1H83
	l-9.7-35.8C72.8,19.3,72.2,19,71,19h-0.6v-2h16.4v2H85c-1.9,0-2.5,0.8-2,2.6l6.7,25.9L96,22.2c0.5-2.1-0.2-3.2-2.2-3.2h-2.1v-2h11.7
	v2H102.1z M61,57.2V52c-1,3.3-3.6,5.8-7.6,5.8c-8.1,0-14-8.9-14-20.1c0-11.6,6-20.6,13.9-20.6c3.5,0,6.2,2.2,7.1,4.6
	c0-8,0-16.9,0-16.9c0-2.4-0.5-2.9-2.7-2.9H55V0h14.7v52.7c0,2.1,0.8,2.5,1.9,2.5h3.5v2H61z M23,57.2v-2h3c1.5,0,2.3-0.8,1.9-2.5
	l-3.5-15.4H12.5L9.4,50.4c-0.8,3.1,0,4.8,3.1,4.8h1.8v2H0v-2.1h1.4c2.9,0,4.4-1.3,5.1-4.5L19,0.2h7.2l12.4,52.2
	c0.5,2,1.8,2.8,3.5,2.8H44v2H23z M397.6,33.2c0-11.4-1.4-14.9-5.1-14.9c-4,0-5.5,2.5-5.5,14.7v1.2h10.6V33.2z M365.2,28
	c0-5.3-0.5-9.6-4.8-9.6c-3.6,0-4.8,4.1-4.8,9.6v6.7c0,6.1,1.3,9.1,4.8,9.1c3.5,0,4.8-2.7,4.8-9.1V28z M322.8,12.4l-5.5,22.8H328
	L322.8,12.4z M362.8,56.6c-3.5-0.1-7.8-0.3-7.8-0.3c-3,1.2-4.9,3.7-4.9,7.3c0,5.9,5.1,8.6,10.4,8.6c6.8,0,12.2-2.6,12.2-8.4
	C372.7,58.3,368.2,56.7,362.8,56.6z M290.1,28c0-5.7-0.7-9.6-4.8-9.6c-3.6,0-4.8,4.1-4.8,9.6v6.7c0,6.1,1.3,9.1,4.8,9.1
	c3.5,0,4.8-2.8,4.8-9.1V28z M288.5,56.6c-3.5-0.1-7.8-0.3-7.8-0.3c-3,1.2-4.9,3.7-4.9,7.3c0,5.9,5.1,8.6,10.4,8.6
	c6.8,0,12.4-2.6,12.4-8.4C298.6,58.3,293.9,56.7,288.5,56.6z M60.4,30.3c0-8-2.5-11.1-5.8-11.1c-4.2,0-5.1,3.1-5.1,16.4v3.4
	c0,13.9,1.5,16.6,5.2,16.6c3.7,0,5.6-3.4,5.6-10.1V30.3z M18.6,12.4l-5.5,22.8h10.7L18.6,12.4z M108.6,36.4v1.1
	c0,12.7,0.8,18.2,7.2,18.2c6.4,0,9.7-4.6,9.7-12.2v-0.7h2.5v0.4c0,7.3-3.7,14.4-12.2,14.4c-10.6,0-17.1-7.4-17.1-20.2
	c0-12.1,5.9-20.8,15.4-20.8c9.1,0,14,7.6,14,17.6v2.2H108.6z M119.2,33.2c0-11.4-1.4-14.9-5.1-14.9c-4,0-5.4,2.5-5.4,14.7v1.2h10.6
	V33.2"/>
<path d="M552.9,129.6c0,0.7-0.5,1.3-1.3,1.3c-0.7,0-1.3-0.5-1.3-1.3c0-0.7,0.5-1.3,1.3-1.3C552.4,128.4,552.9,128.9,552.9,129.6z
	 M553.2,129.6c0-0.9-0.7-1.5-1.5-1.5c-0.9,0-1.5,0.7-1.5,1.5c0,0.9,0.7,1.5,1.5,1.5C552.5,131.2,553.2,130.5,553.2,129.6z
	 M552.4,129.3c0-0.4-0.2-0.5-0.6-0.5H551v1.7h0.4v-0.6h0.3l0.3,0.6h0.4l-0.3-0.7C552.2,129.7,552.4,129.6,552.4,129.3z M552,129.3
	c0,0.1-0.1,0.2-0.2,0.2h-0.4v-0.4h0.4C551.9,129.1,552,129.2,552,129.3"/>
</svg>
