<?xml version="1.0" encoding="utf-8"?>
<!-- Generator: Adobe Illustrator 19.1.0, SVG Export Plug-In . SVG Version: 6.00 Build 0)  -->
<svg version="1.1" id="Layer_1" xmlns="http://www.w3.org/2000/svg" xmlns:xlink="http://www.w3.org/1999/xlink" x="0px" y="0px"
	 viewBox="0 0 919.7 264.6" style="enable-background:new 0 0 919.7 264.6;" xml:space="preserve">
<style type="text/css">
	.st0{fill:#FFFFFF;}
</style>
<g>
	<path class="st0" d="M93.1,203.2c-11.5,0-22.3,0-33.7,0c-1.9,12.2-3.9,24.3-5.8,36.6c-17.9,0-35.3,0-53.6,0
		C11.5,159.9,22.9,80.5,34.4,0.6c27.7,0,55.1,0,83,0c7.1,48,14.1,95.9,21.2,143.7c0.2,0,0.4,0,0.5,0c0-47.7,0-95.5,0-143.8
		c2.4-0.1,4.5-0.3,6.6-0.3c30,0,60,0,90,0c14.5,0,26.6,5.3,36.2,16.1c0.4,0.5,0.9,1,1.9,2.1c-0.9-6.3-1.6-11.9-2.5-17.9
		c18.3,0,36,0,54.3,0c6.2,36.1,12.4,71.9,18.6,107.8c0.2,0,0.4,0,0.6,0c5-35.8,10.1-71.6,15.1-107.7c16.5,0,32.6,0,49.4,0
		c5.1,35.7,10.1,71.4,15.2,107.1c0.2,0,0.4,0,0.6,0.1c6.2-35.5,12.3-71,18.5-106.4C447.3,0,590.3-0.5,598,0.7
		c1.3,3.4,1.7,37.7,0.5,45.7c-9.3,1.1-18.7,0.3-28.1,0.5c-9.3,0.1-18.6,0-28.4,0c0,13.7,0,26.8,0,40.6c18.8,0,37.4,0,55.7,0
		c1.5,4,1.9,38.9,0.6,46.3c-18.6,0-37.3,0-56.4,0c0,17.2,0,33.8,0,51c18.8,0,37.6,0,56.7,0c0,18.6,0,36.7,0,54.9
		c-37.3,0-74.2,0-111.5,0c0-53.1,0-105.9,0-158.7c-0.3,0-0.6-0.1-0.8-0.1c-8.2,52.8-16.5,105.7-24.8,158.8c-19.2,0-38,0-57.2,0
		c-6.5-44.2-12.9-88.1-19.4-132.1c-0.2,0-0.4,0-0.6-0.1c-6.2,43.9-12.4,87.8-18.7,132.1c-19.4,0-38.3,0-57.9,0
		c-8.2-53.5-16.4-107.1-24.6-160.7c-0.2,0-0.4,0-0.6,0.1c0,4.3,0,8.7,0,13c0,33.7-0.4,67.3,0.1,101c0.3,22.3-16.1,45.6-44.7,46.9
		c-1.5,0.1-3,0.1-4.5,0.1c-42.7,0-85.3,0-128,0c-2,0-4,0-6.5,0C97,227.7,95.1,215.6,93.1,203.2z M194.4,184.9c5.5,0,10.3,0,15.1,0
		c11.6-0.1,17.8-6.3,17.8-17.9c0-30.3,0-60.6,0-90.9c0-4.8,0.1-9.7-0.1-14.5c-0.2-6.7-5-13.3-11.4-14c-7-0.8-14.1-0.2-21.5-0.2
		C194.4,93.2,194.4,138.7,194.4,184.9z M66.8,149.9c6.1,1.4,15.8,1.1,18.9-0.6c-3-20-5.9-40.1-8.9-60.2c-0.4,0-0.7,0-1.1,0
		C72.7,109.4,69.8,129.6,66.8,149.9z"/>
	<path class="st0" d="M875.8,239.8c-19.4,0-38,0-57,0c-9.9-35.9-19.8-71.6-29.7-107.3c-0.3,0-0.7,0.1-1,0.1c0,35.6,0,71.2,0,107.2
		c-18.6,0-36.5,0-54.8,0c0-79.7,0-159.1,0-239.3c18-0.5,36-0.3,54.6-0.1c0,25.9,0,51.1,0,76.4c0.4,0.1,0.9,0.2,1.3,0.3
		c8.6-25.4,17.3-50.8,26-76.4c18.3,0,36.3,0,54.9,0c-0.7,2.4-1.2,4.3-1.8,6.1c-9.9,28.7-19.7,57.3-29.7,85.9
		c-1.1,3.3-0.6,6.1,0.2,9.2c12,44.2,23.9,88.4,35.8,132.6C875,236,875.3,237.6,875.8,239.8z"/>
	<path class="st0" d="M721.8,134.1c-19,0-37.4,0-56.3,0c0,17,0,33.5,0,50.6c18.7,0,37.2,0,56.3,0c0,18.6,0,36.6,0,55
		c-37.2,0-74.3,0-111.6,0c0-79.8,0-159.2,0-238.5c3.8-1.2,105.6-1.5,111.7-0.3c0,15,0,30,0,45.8c-18.6,0-37.2,0-55.5,0
		c-1.5,4.1-1.8,34.2-0.6,40.9c18.5,0,37,0,56.1,0C721.8,103.2,721.8,118.2,721.8,134.1z"/>
</g>
<g>
	<path class="st0" d="M901.6,244.8h2.8c1.2,0,2.1,0.1,2.5,0.3c0.5,0.2,0.8,0.4,1.1,0.8c0.3,0.4,0.4,0.8,0.4,1.2
		c0,0.7-0.3,1.3-0.8,1.7c-0.5,0.4-1.5,0.6-3,0.6h-3V244.8z M901.6,258.2v-6.6h1.5c0.9,0,1.5,0.2,2,0.5c0.7,0.5,1.5,1.7,2.6,3.6
		l1.4,2.4h3l-1.9-3c-0.9-1.4-1.7-2.5-2.3-3.1c-0.3-0.3-0.8-0.6-1.3-0.8c1.3-0.1,2.4-0.6,3.2-1.4c0.8-0.8,1.2-1.8,1.2-3
		c0-0.8-0.2-1.6-0.7-2.3s-1.1-1.2-1.9-1.5c-0.8-0.3-2.1-0.4-3.9-0.4h-5.3v15.5H901.6z M911.3,239.8c1.9,1,3.4,2.5,4.5,4.4
		c1.1,1.9,1.6,3.9,1.6,6c0,2.1-0.5,4.1-1.6,6c-1.1,1.9-2.5,3.4-4.4,4.4c-1.9,1.1-3.9,1.6-6,1.6s-4.1-0.5-6-1.6
		c-1.9-1.1-3.4-2.5-4.4-4.4c-1.1-1.9-1.6-3.9-1.6-6c0-2.1,0.5-4.1,1.6-6c1.1-1.9,2.6-3.4,4.5-4.4c1.9-1,3.9-1.6,5.9-1.6
		C907.4,238.3,909.4,238.8,911.3,239.8z M898.3,237.7c-2.3,1.2-4.1,3-5.4,5.3c-1.3,2.3-1.9,4.7-1.9,7.2c0,2.5,0.6,4.9,1.9,7.1
		s3,4.1,5.3,5.3c2.3,1.3,4.7,1.9,7.2,1.9s4.9-0.6,7.2-1.9c2.3-1.3,4-3,5.3-5.3c1.3-2.3,1.9-4.7,1.9-7.1c0-2.5-0.6-4.9-1.9-7.2
		c-1.3-2.3-3.1-4.1-5.4-5.3c-2.3-1.2-4.7-1.9-7.1-1.9S900.6,236.5,898.3,237.7z"/>
</g>
</svg>
