<?xml version="1.0" encoding="utf-8"?>
<!-- Generator: Adobe Illustrator 19.1.0, SVG Export Plug-In . SVG Version: 6.00 Build 0)  -->
<svg version="1.1" id="Layer_1" xmlns="http://www.w3.org/2000/svg" xmlns:xlink="http://www.w3.org/1999/xlink" x="0px" y="0px"
	 viewBox="0 0 500 500" style="enable-background:new 0 0 500 500;" xml:space="preserve">
<style type="text/css">
	.st0{fill:#FFFFFF;}
</style>
<g>
	<path class="st0" d="M0,500C0,333.3,0,166.7,0,0c166.7,0,333.3,0,500,0c0,166.7,0,333.3,0,500C333.3,500,166.7,500,0,500z
		 M138.2,123.6c-2.3-2.4-4.6-2.4-7-2.4c-7.2,0-14.3,0-21.5,0c-1.1,0-2.2,0.2-3.3,0.3c0,5.3,0,10.2,0,15.1c2,0.3,3.7,0.6,5.5,0.8
		c0.2,3,0.6,5.6-0.2,8.2c-2.7-1.5-4.9-3.3-7.6-4.2c-9.7-3.3-24.1-0.3-29.4,12.8c-4.1,10-3.2,20.2-2,30.4c0.2,1.5,0.6,2.9,1.1,4.3
		c2.2,6.2,5.9,11.5,12.4,13.4c8.8,2.6,17.7,3.1,25.8-2.7c0.4-0.3,0.9-0.3,1.3-0.4c0.6,1.1,1.1,2.1,1.8,3.6c21.2,0,42.4,0,63.8,0
		c-0.1,1,0,1.4-0.1,1.9c-2.3,8.3,0,13.1,7.9,16.2c0.9,0.4,1.9,0.8,2.8,0.9c5.1,0.7,10.1,1.6,15.2,1.9c4.3,0.2,8.6-0.6,12.9-0.7
		c4.4-0.1,8.5-1.3,12.5-3c6.5-2.6,11.1-7,12.9-14.1c0.2-0.9,0.5-1.8,0.9-3.1c4.3,0,8.4,0,12.5,0c4,0,8,0.1,12,0
		c4.1-0.1,8.2,0.5,12.2-0.4c0-4.9,0-9.5,0-14.3c-2.1-0.3-4.4,0.3-5.7-2.6c0-1.2,0-3,0-4.9c0-10.8,0-21.7,0-32.5c0-2.2-0.1-4.3-2-6.6
		c-1.4-0.1-3.4-0.5-5.3-0.5c-14.5,0-29,0-43.5,0c-1.8,0-3.7,0.2-5.5-0.2c-5.4-1.1-10.8-0.9-16.3,0c-4.8,0.8-9.3,2.2-13.3,5.1
		c-8.8,6.4-8.7,20.9-2.8,26.6c1.3,1.2,2.5,2.5,3.9,4c-4.1,2.9-6.4,6.5-6.5,11.9c0.2,0.9,0.5,2.3,0.8,3.8c0.9,1.3,1.8,2.6,3,4.3
		c-2,1.3-3.7,2.4-6.2,4c0-4.6,0-8.4,0-12c-2.1-0.8-3.7-1.4-5.4-2c0-2.1,0-3.8,0-5.4c0-10,0.1-20,0-30c0-2.8-0.5-5.6-0.8-8.1
		c-1.2-0.9-1.9-1.5-2.4-1.9c-9.9,0-19.3,0-29.3,0c-0.2,5.2-0.1,10.1,0,15c1.9,0.4,3.4,0.7,5.1,1.1c0.3,0.9,0.8,1.7,0.8,2.4
		c0.1,8.3,0.1,16.7,0,25c0,1-0.8,2-1.4,3.1c-2.8-0.1-5.2-0.3-7.3-0.4c-2.5-2.2-2.3-4.7-2.3-7.2c0-17.3,0-34.6,0-52
		C138.2,126.8,138.2,125.2,138.2,123.6z M320.5,202.4c0.2-2.9,0.4-5.4,0.6-8.5c6.8,11.6,23.2,13.1,35.1,4.3c0.4,0.2,0.9,0.4,1.2,0.8
		c3.1,3.8,7.3,4.8,12,5c5.2,0.2,10.2-0.7,15.1-2.6c0.5,0.5,0.9,1,1.3,1.5c6.2,0,12.4,0.1,18.5,0c6.1-0.1,12.2,0.3,18.4-0.2
		c0-4.9,0-9.5,0-14.1c-2-0.7-3.8-1.3-5.8-2c0-21,0-41.6,0-61.8c-3-3.3-3.4-3.5-7.2-3.5c-7.3,0-14.7,0-22,0c-1.1,0-2.2,0.3-3.4,0.5
		c0,5.1,0,9.9,0,14.9c1.6,0.3,3,0.5,4.4,0.7c0.7,0.8,1.4,1.5,2,2.2c0,15.5,0,30.8,0,46.2c-0.9,0.8-1.7,1.6-2.3,2.1c-2.4,0-4.4,0-6,0
		c-2.1-1.5-1.6-3.5-1.7-5.2c0-7,0.1-14-0.1-21c-0.1-2.6-0.4-5.3-1-7.8c-2.1-8.1-8.4-11-15.8-12.5c-8.9-1.8-17.9-1.1-26.7,0.2
		c-4.3,0.6-8.8,1.2-12.9,3.3c0,5.8,0,11.4,0,17.2c3.8,0,7.4,0,11.2,0c5.8-3.2,11.8-6.2,18.4-1.1c0,2,0,3.9,0,6.1c-1.2,0-2.2,0-3.1,0
		c-4.1,0-8.3-0.2-12.4,0.1c-9.6,0.7-18.7,5.6-18.4,18.6c0,0.8-0.4,1.5-0.5,2.2c-3,0.5-5.6,0.3-8-1.7c-1.3-1.9-1.6-4.1-1.6-6.5
		c0.1-6.3,0-12.7,0-19c0-1.1,0.2-2.2,0.3-3.5c3.4-0.1,6.5-0.3,9.7-0.4c0-2.9,0-5.4,0-7.8c0-2.5,0-4.9,0-7.9c-3.6,0-6.6,0-10,0
		c0-3,0-5.5,0-7.9c0-2.5,0-4.9,0-7.3c-6.7-0.9-22.2-0.7-26,0.4c0,4.8,0,9.7,0,14.7c-2.2,0.3-3.9,0.5-5.6,0.6c0,5.3,0,10.2,0,15.1
		c2,0.3,3.7,0.5,5.7,0.8c0,1.8,0,3.2,0,4.7c0,8,0,16,0,24c0,9.1,4.1,15.9,13.7,17.3C305.2,204.4,312.7,204.4,320.5,202.4z
		 M208,292.9c6.2,0,12.3,0,18.5,0c1.5,0,2.9,0,4.5,0c2.1-4.7,4-9.1,6-13.4c3.9-9,7.9-17.9,11.8-26.9c0.9-2.1,1.7-4.4,4.3-5.4
		c2-0.1,4.2-0.8,6.1,0.7c1.2,3.5,1.6,14.4,0.9,25.8c-0.1,1.3-0.5,2.5-0.7,3.8c-1.2,0.2-2,0.4-2.8,0.5c-0.8,0.1-1.5,0.3-2.4,0.5
		c0.2,4.9-0.3,9.5,0.3,14c6.4,0.8,33.7,0.6,37.2-0.2c0-4.6,0-9.2,0-14.1c-2.4,0-4.4-0.5-5.7-3.1c0-1.3,0-2.9,0-4.6
		c0-11.2,0-22.3,0-33.5c0-2.5-0.2-4.7-3-5.7c-19.1-0.7-53.9-0.4-58.6,0.5c-0.5,4.9-0.3,9.8-0.2,14.7c1.7,1,4,0.4,4.6,3.3
		c-1.9,5.1-4,10.7-6.4,17.4c-2.9-7.2-4.8-13.5-7.2-20c1.9-0.2,3.5-0.3,5.4-0.5c0.2-5.2,0.3-10.3,0-15.3c-12.1,0-23.7,0-35.8,0
		c0,4.3-0.4,8.8-0.4,14.1c-1.1-2-2-2.8-2.6-3.7c-3.9-5.8-9.5-9.2-16.3-10.6c-6.4-1.3-12.9-1.6-19.2,0c-11,2.8-19.1,9-22.5,20.3
		c-2.2,7.5-2.1,14.9-0.1,22.5c1.9,7.4,6.1,12.8,12.9,16.2c4.8,2.4,10,3.5,15.3,3.6c6.1,0.2,12.3,0.4,18.4-0.9
		c4.7-1,9.3-2.2,13.5-4.7c-0.3-5.1,0.4-10.1-0.4-15.1c-2.4,0-4.6,0-6.8,0c-2.2,0-4.3,0-6.2,0c-7.4,6.1-12.3,6.7-19.2,2.4
		c-2.2-3.9-2.2-3.9-1.9-7.6c5.9,0,11.9,0,17.9,0c6.1,0,12.2,0.1,18.5-0.1c0.4-7.2,0.6-13.9-1.3-20.5c2.4-0.7,3.9,0.1,5,1.8
		c0.6,1,1.1,2.1,1.5,3.1C196.5,265.5,202.1,278.8,208,292.9z M450.9,231.5c-8.6-0.8-24.2-0.5-27.8,0.4c0,3.6,0,7.3,0,10.9
		c0,1.2,0,2.3,0,3.4c1.4,0.8,2.6,1.5,3.8,2.2c-0.2,4.4-1.6,9.8-3.8,13.6c-2.9-10.5-5.7-20.6-8.4-30.6c-6.2,0-12,0-17.9,0
		c-0.3,0.8-0.5,1.4-0.7,2c-2.3,8.6-4.6,17.2-7,25.8c-0.2,0.6-0.7,1.2-1.5,2.7c-1.3-5.3-3.2-9.3-3.5-13.8c0-0.3,0.3-0.5,0.4-0.9
		c1-0.2,2.1-0.4,3.5-0.7c0-4.4,0-8.7,0-13.1c0-0.6-0.2-1.3-0.2-1.8c-6.3-0.8-30-0.6-33.7,0.4c0,4.5,0,9.1,0,14.8
		c-1-1.8-1.5-2.4-1.8-3.1c-3.1-6.4-8.2-10.1-15.1-11.9c-7.2-1.9-14.5-2.2-21.7-0.5c-11.4,2.6-19.3,9.3-22.4,20.9
		c-1.4,5.3-1.6,10.7-1,16.2c1.5,15.2,9.6,22.2,22,24.6c10.6,2.1,21.2,1.5,31.6-1.3c2.7-0.7,5.4-1.6,7.5-3.4c0-5,0-9.8,0-14.8
		c-4.6,0-9.1,0-13.6,0c-4.1,3.4-6.7,4.4-10.6,4.8c-5.3,0.5-10.8-3.1-10.4-10.3c4.1,0,8.2,0,12.3,0c4,0,8,0.1,12,0
		c4.1-0.1,8.2,0.5,12.5-0.5c0-3.5-0.2-6.9,0-10.2c0.2-3.4-1.6-6.6-0.7-10.2c3,0.5,4,2.4,4.7,4.8c2.9,10.2,5.8,20.3,9,30.4
		c1.1,3.6,1.5,7.4,3.7,10.6c3.9,0,7.5,0,11.2,0c3.6,0,7.2-0.1,10.8-0.1c2.5-8.4,4.9-16.3,7.3-24.3c0.3-0.8,0.8-1.6,1.6-3.1
		c2.9,9.6,5.5,18.4,8.1,27.2c7.7,0,15,0,22.2,0c0.4-0.6,0.7-1,0.8-1.5c3.7-12.3,7.6-24.7,11.1-37.1c1-3.6,2.4-6.5,6-7.6
		C450.9,241.4,450.9,236.6,450.9,231.5z M184.5,384.2c3.6-0.4,7.3-0.7,10.8-1.4c14.4-2.7,23.5-14.7,23.9-26.4
		c0.1-2.8,0.1-5.6-0.1-8.4c-1-12.1-7.4-20.5-18.4-25c-10.4-4.3-21.1-4-31.6,0c-6.9,2.6-12.4,7.2-15.5,14c-3.6,7.9-4.5,16.3-2.1,24.8
		c1.9,7,6,12.5,12.1,16.4C169.9,382.4,176.9,384.1,184.5,384.2z M149,323.4c-0.8-0.4-1.2-0.7-1.7-0.8c-10.6-2.7-21.3-3.5-32-1.2
		c-5.8,1.2-11.1,3.7-15.1,8.2c-6.8,7.5-8.5,16.7-7.9,26.4c0.1,2.6,0.8,5.1,1.4,8.2c-1.1-0.7-1.6-1.1-2.1-1.4
		c-4.8-3.2-9.7-3.1-14.5-0.4c-4.4,2.4-5,6.5-4.9,11.1c0.1,4.4,2.2,7.3,6,9c4.9,2.2,8.8,1.5,14-1.5c0.2-0.1,4.8-3.6,4.8-10
		c3.4,6.3,9.1,9.3,15.4,11.2c7.1,2.1,14.5,2.1,21.8,1.4c5.6-0.5,11-2.2,15.7-5.7c0-4.9,0-9.7,0-14.7c-4.3,0-8.4,0-12.4,0
		c-0.6,0.6-1.1,1.1-1.6,1.5c-4.8,4.8-14.1,4.9-15.9-4.6c-0.6-3.4-0.7-6.9-0.7-10.4c-0.1-3.7,1-7.2,3-10.1c6.8-4,8.6-3.6,13.5,3.2
		c4.3-0.4,8.9,0.5,13.6-0.5C149,336,149,329.8,149,323.4z M108.9,278.4c-2.1-0.2-4-0.5-6-0.7c0-4.5-0.1-8.6,0-12.8
		c0.1-4.3-0.5-8.6,0.4-13.1c6.2-0.5,12.3-0.9,18.3-1.4c0-6.5,0-12.7,0-19.2c-3.1,0-5.9,0-7.5,0c-5.3,0.8-7.7,4.2-11,7
		c-1-2.2-1.8-4.1-2.8-6.2c-2.1-0.3-4.2-0.8-6.3-0.8c-6.5-0.1-13-0.1-19.5,0c-1.1,0-2.2,0.2-3.2,0.3c0,5.3,0,10.2,0,15.1
		c2,0.6,4.4-0.3,5.5,2.2c0.6,6.7,0.4,24.6-0.4,28.5c-1.4,0.4-2.9,0.9-4.6,1.5c0,2.3,0,4.7,0,7c0,2.3,0.1,4.5,0.1,6.7
		c6.4,0.7,33,0.6,37-0.2C108.9,287.7,108.9,283.1,108.9,278.4z M172.3,133.5c0.6-1.5,1.7-3.4,2.2-5.5c1.3-4.9-1-10.3-5-12.4
		c-5.4-2.7-13.7-1.8-16.7,2c-0.7,0.9-1.2,2-1.6,3c-2,4.8-0.8,9.1,2,13C160.4,138.1,164.7,138.1,172.3,133.5z M284.7,210.1
		c-6.3-6.5-12.7-7.6-18.9-3.9c-1.2,0.7-2.5,1.7-3.3,2.9c-4.2,6.7-0.7,15.5,7,17.2c2.5,0.6,5.3,0.5,7.8,0c4.8-1,7.6-4.7,7.7-9.6
		C285.2,214.4,284.9,212.1,284.7,210.1z M273.9,125.6c0-7.5-4.4-11.3-12.5-11.4c-6.7-0.1-11.7,4.7-11.7,11.3c0,6.7,5,11.7,12.1,11.4
		C269.8,136.6,274.6,132.1,273.9,125.6z"/>
	<path class="st0" d="M246.6,157.1c0.5,0.4,0.9,0.7,1.2,1.1c0.3,0.4,0.6,0.8,1.1,1.3c0,8.5,0,17.1,0,25.8c-2.1,2.4-2.1,2.4-5.4,3
		c-0.2,1-0.4,2.1-0.7,3.3c-0.3-0.1-0.8-0.1-0.9-0.2c-2.9-5.2-7.9-7-13.4-7.2c-7.7-0.2-15.3-0.1-23-0.1c-1.2,0-2.4,0.1-3.5-0.2
		c-1.6-0.5-2.5-1.5-1.8-3.3c4.6,0.1,9.2,0.5,13.8,0.3c5.7-0.2,11.2-1.3,16.2-4.3c5.6-3.3,8.5-8.2,8.7-14.7c0-1.6-0.4-3.4,1.8-4.7
		C242.3,157.1,244.2,157.1,246.6,157.1z"/>
	<path class="st0" d="M112,160.1c0,8.8,0,17.2,0,25.9c-1.7,0.6-3.4,1.2-4.7,1.7c-6.1-0.8-8-5-9-9.7c-0.8-4.1-0.8-8.2,0.6-12.3
		C101.1,159.5,105.1,157.6,112,160.1z"/>
	<path class="st0" d="M205.2,161.3c0.4-1.8,0.7-3.3,1-5.1c0.7-0.6,1.5-1.4,2.2-2.1c1.8,0,3.5,0,4.9,0c3.8,4.7,3.8,8.8,0.1,13.8
		c-1.4,0.1-3,0.2-4,0.3C205.6,166.9,206.1,163.7,205.2,161.3z"/>
	<path class="st0" d="M220.7,204c0.6,2.2,0,3.3-1.3,3.9c-1.4,0.6-2.8,1.1-4.3,1.1c-4.5,0.1-9,0.1-13.2,0.1c-2.7-2.5-2.7-2.5-2.6-6
		c6.2-0.3,12.5-0.2,18.8,0C218.9,203,219.8,203.6,220.7,204z"/>
	<path class="st0" d="M345,186.6c0-2,0-3.9,0-5.8c2.4-2.8,5.3-3.3,8.7-2c0.9,2.8,0.4,5.5,0.3,8.2C351.1,189.6,348.3,189.4,345,186.6
		z"/>
	<path class="st0" d="M153.1,246c1.9,0,3.6,0,4.9,0c3.7,1.9,3.2,5.4,4.1,8.6c-4.5,0.9-8.6,0.5-12.8,0.4
		C149.1,250.2,149.6,249.1,153.1,246z"/>
	<path class="st0" d="M327.7,246.4c2.6,2.3,3.3,5.1,3.2,8.5c-4.2,0-8.3,0-12.5,0c-0.9-2.9,0.5-5.3,2.1-7.2
		C322.2,245.6,324.9,245.5,327.7,246.4z"/>
	<path class="st0" d="M180.6,338.7c2.1-0.4,4.1-0.7,5.7-1c3.7,2,5.4,4.7,6,8.1c1.2,6.1,1.2,12.1-1.7,17.9c-1.2,2.4-2.8,4.1-5.7,4.1
		c-2.8,0.1-4.6-1.6-6.1-3.7c-0.2-0.3-0.3-0.6-0.4-0.9C175.9,354.9,175.5,346.8,180.6,338.7z"/>
</g>
</svg>
