<?xml version="1.0" encoding="utf-8"?>
<!-- Generator: Adobe Illustrator 19.1.0, SVG Export Plug-In . SVG Version: 6.00 Build 0)  -->
<svg version="1.1" id="Layer_1" xmlns="http://www.w3.org/2000/svg" xmlns:xlink="http://www.w3.org/1999/xlink" x="0px" y="0px"
	 viewBox="0 0 271.2 46.9" style="enable-background:new 0 0 271.2 46.9;" xml:space="preserve">
<style type="text/css">
	.st0{fill:#FFFFFF;}
</style>
<g>
	<path class="st0" d="M0,0.9c7.3,0,14.6-0.1,21.9,0.1c2.6,0.1,5.3,0.7,7.8,1.5c2.2,0.7,4.2,2,6.2,3.2c10,6.4,11.6,32.2-4.8,38
		c-3.2,1.2-6.7,1.9-10.2,2.1C14,46.2,7,45.9,0,45.9C0,30.9,0,15.9,0,0.9z M15.3,13.1c0,7.2,0,13.8,0,20.6c4.6,0.4,8.9,0.4,11.4-3.8
		c2.5-4.3,2.5-9.1-0.1-13.3C24.1,12.2,19.7,12.6,15.3,13.1z"/>
	<path class="st0" d="M141.4,46.1c0-15.3,0-30,0-45.3c6.2,0,12.1-0.1,18,0c2.6,0,5.3,0.2,7.9,0.7c12.9,2.6,18.1,11.7,17.2,24.1
		c-0.8,11.4-6.5,17.6-17.7,19.7C158.6,46.9,150.1,45.8,141.4,46.1z M155.6,13.1c0,3.7-0.1,7,0,10.3c0.1,3.4-0.1,6,0.4,10.4
		c4.3,0,9.6,0.2,11.9-4c2.4-4.3,2.3-9-0.1-13.3C165.3,12.3,160.5,12.6,155.6,13.1z"/>
	<path class="st0" d="M98.8,33.3c0-1.2,0-2.1,0-3.4c-2.1-0.1-4.1-0.2-6.4-0.4c0-3.4,0-6.8,0-10.4c7,0,13.9,0,21.1,0
		c0,6.4,0,12.6,0,19.5c-4.3,4.8-10.3,7.5-17.1,8.1c-2.9,0.3-6,0.3-8.9-0.2c-15.9-2.9-23.9-17.9-17.6-33c1.7-4.1,4.6-7.3,8.3-9.6
		c10.1-6.2,26.1-4.8,33.6,4c-3.1,2.6-6.1,5.3-9.4,8.1c-3.6-2.1-7.1-4.7-11.5-3.5c-1.8,0.5-3.7,1.6-5,3c-3.6,3.7-3.8,11-0.8,15.3
		C87.9,34.7,92.3,35.6,98.8,33.3z"/>
	<path class="st0" d="M216.6,45.8c-0.7-1.9-1.3-3.6-2-5.6c-4.2,0-8.4,0-13,0c-0.6,1.6-1.3,3.5-2,5.6c-4.8,0-9.7,0-15.3,0
		C189.6,30.8,194.7,16,200,1.1c5.6,0,11,0,16.9,0c5.2,14.7,10.4,29.5,15.8,44.7C227.2,45.8,222.1,45.8,216.6,45.8z M211.3,28
		c-1-3.7-1.9-7-2.7-10.3c-0.3,0-0.6,0-1,0c-0.9,3.4-1.8,6.7-2.7,10.3C207.3,28,209.1,28,211.3,28z"/>
	<path class="st0" d="M225.4,1c5.5,0,10.6,0,16.2,0c2.1,4.5,4.3,9.3,6.8,14.8c2.5-5.4,4.6-10.1,6.8-14.8c5.2,0,10.3,0,16,0
		c-0.6,1.5-1,2.7-1.7,3.7c-4,6.9-7.9,13.9-12,20.7c-1.2,1.9-1.6,3.9-1.6,6.1c0,4.9,0,9.3,0,14.2c-5,0-10.3,0-15.2,0
		c0-5.6,0-11.3,0-15c0-3.5-0.6-4.3-3.5-8.7c-3.7-5.7-6.9-11.8-10.3-17.7C226.5,3.4,226,2.3,225.4,1z"/>
	<path class="st0" d="M48.5,1c4.9,0,9.5,0,14.3,0c0,15,0,29.7,0,44.7c-4.8,0-9.4,0-14,0C48.8,33.8,48.5,11.8,48.5,1z"/>
	<path class="st0" d="M134.3,45.8c-5.2,0-9.6,0-13.9,0c0-4.8-0.3-37.1-0.3-44.9c4.5-0.3,9-0.3,14.2,0.1
		C134.4,15.9,134.3,30.6,134.3,45.8z"/>
</g>
</svg>
