<?xml version="1.0" encoding="utf-8"?>
<!-- Generator: Adobe Illustrator 19.1.0, SVG Export Plug-In . SVG Version: 6.00 Build 0)  -->
<svg version="1.1" id="Layer_1" xmlns="http://www.w3.org/2000/svg" xmlns:xlink="http://www.w3.org/1999/xlink" x="0px" y="0px"
	 viewBox="0 0 1280 195.6" style="enable-background:new 0 0 1280 195.6;" xml:space="preserve">
<style type="text/css">
	.st0{fill-rule:evenodd;clip-rule:evenodd;fill:#FFFFFF;}
</style>
<g>
	<path class="st0" d="M609.6,52.9c0,26.4-2.6,108.4-2.6,108.4c0,15.9,5.1,22.9,19.6,22.9v7h-57v-7c14.5,0,22.1-7.1,22.1-22.9
		l5.1-133.9c-4.3-10.6-8.5-14.1-19.6-15V6.2h43.4l45.9,125.1L713.3,6.2h39.1v6.2c-11.1,0-17,5.3-17,17.6l5.1,129.5
		c0,19.4,3.4,24.7,18.7,24.7v7h-65.5v-7c12.8,0,18.7-4.4,17.9-24.7c0,0-2.6-90.8-3.4-106.6l-31.5,89.9c-4.3,11.5-8.5,24.7-11.9,38.8
		l-10.2,0.9c-2.6-9.7-9.4-27.3-9.4-27.3S618.9,78.4,609.6,52.9L609.6,52.9z"/>
	<path class="st0" d="M556,192.1c-3.4-0.9-6.8-0.9-10.2-0.9c-6.8,0-18.7,3.5-33.2,3.5c-55.3,0-96.1-34.4-96.1-97.8
		c0-53.8,38.3-95.2,96.9-95.2c13.6,0,28.9,2.6,41.7,7.9c2.6-2.6,3.4-4.4,6-7h5.1c-0.9,9.7-4.3,41.4-4.3,41.4h-5.1
		c-3.4-18.5-12.8-30.8-42.5-30.8c-35.7,0-68,29.1-68,82.8c0,60.8,33.2,87.2,69.7,87.2c23.8,0,38.3-14.1,47.6-31.7l6,2.6L556,192.1
		L556,192.1z"/>
	<path class="st0" d="M395.3,40.5h-6c-0.8-16.7-6-22-18.7-22H346v138.3c0,22.9,4.3,27.3,18.7,27.3v7h-63.8v-7
		c14.5,0,18.7-4.4,18.7-28.2V18.5H295c-16.2,0-18.7,4.4-23,22h-6l4.3-39.7l4.3,0.9c1.7,4.4,5.1,4.4,15.3,4.4h82.5
		c15.3,0,18.7,0,22.1-5.3h5.1L395.3,40.5L395.3,40.5z"/>
	<path class="st0" d="M215,195.6c-11.9,0-21.3-1.8-28.1-4.4c-6.8-1.8-11.9-4.4-14.5-6.2c-3.4,3.5-6,7.9-6,7.9l-5.1-1.8l4.3-41.4
		l6,0.9c3.4,19.4,16.2,33.5,42.5,33.5c20.4,0,34-17.6,34-37c0-15.9-6-23.8-26.4-39.7c-6.8-4.4-12.8-7.9-17.9-12.3
		c-18.7-12.3-30.6-26.4-30.6-49.3c0-26.4,21.3-44.1,49.3-44.1c16.2,0,26.4,5.3,29.8,7l6-7l4.3,0.9l-4.3,37.9l-6-0.9
		c0-17.6-10.2-25.6-27.2-25.6c-16.2,0-28.1,8.8-28.1,25.6c0,15,11.1,24.7,23.8,33.5c6.8,4.4,11.9,7.9,17,11.5
		c29.8,22,36.6,36.1,36.6,57.3C274.6,172.7,251.6,195.6,215,195.6L215,195.6z"/>
	<path class="st0" d="M118.1,40.5h-6.8c0-15.9-6.8-22-20.4-22H52.6v69.6h24.7c12.8,0,15.3-7,17-18.5h6V119h-6
		c-1.7-13.2-4.3-18.5-17.9-18.5H52.6v59c0,22,5.1,24.7,18.7,24.7v7H6.7v-7c16.2,0,18.7-4.4,18.7-24.7V30c0-12.3-5.1-17.6-18.7-17.6
		V6.2h88.4c15.3,0,18.7-0.9,21.3-6.2h6L118.1,40.5L118.1,40.5z"/>
	<path class="st0" d="M1035.6,51.1v105.7c0,22.9,5.1,27.3,18.7,27.3v7H954v-7c7.7,0,14.5-2.6,14.5-7.9c0-3.5-0.9-9.7-2.6-15.9
		l-7.7-25.6h-56.1c-0.9,3.5-11.1,32.6-11.1,40.5c0,7.1,7.7,8.8,12.8,8.8v7H857v-7c8.5,0,15.3-0.9,21.3-19.4l43.4-143.6
		c-2.5-6.2-6-7.9-11.9-8.8V6.2H948l45.9,150.7c4.3,15.9,8.5,23.8,15.3,27.3c10.2-3.5,12.8-7.1,12.8-27.3V30
		c-7.7-10.6-8.5-17.6-23-17.6V6.2h43.4l71.4,126v-96c0-19.4-4.3-23.8-18.7-23.8V6.2h95.2v6.2c-6,0-11.1,2.6-11.1,8.8
		c0,4.4,1.7,8.8,3.4,14.1l27.2,60.8l26.4-59c4.3-7.9,5.1-12.3,5.1-16.7c0-5.3-3.4-7.9-11.1-7.9V6.2h45.1v6.2
		c-11.1,0-17.9,10.6-23,22.9l-34.9,74v48.5c0,21.2,5.1,26.4,18.7,26.4v7h-64.6v-7c13.6,0,18.7-5.3,18.7-26.4v-41.4l-37.4-82
		c-6.8-15.9-9.4-19.4-13.6-22c-8.5,3.5-11.1,9.7-11.1,23.8v135.7c0,0,0.8,10.6,1.7,22.9l-11.1,0.9L1035.6,51.1L1035.6,51.1z
		 M929.3,42.3l-23.8,80.2h49.3L929.3,42.3L929.3,42.3z"/>
	<path class="st0" d="M823.9,122.5c0,0-7.7,0-12.8,0v37.9c0,19.4,5.1,23.8,19.6,23.8v7h-65.5v-7c13.6,0,18.7-5.3,18.7-24.7V35.2
		c0-19.4-5.1-22.9-18.7-22.9V6.2h49.3c47.6,0,75.7,15,75.7,55.5C890.2,104,856.2,122.5,823.9,122.5L823.9,122.5z M815.4,18.5h-4.3
		v90.8h7.7c28.1,0,42.5-13.2,42.5-46.7C861.3,29.1,848.5,18.5,815.4,18.5L815.4,18.5z"/>
	<path class="st0" d="M527.1,156c-32.3,0-54.4-23.8-54.4-58.2c0-32.6,23-58.2,54.4-58.2c30.6,0,53.6,24.7,53.6,58.2
		C580.7,130.4,556.9,156,527.1,156L527.1,156z M527.1,50.2c-22.1,0-29.8,22-29.8,47.6c0,23.8,6.8,47.6,29.8,47.6
		c22.1,0,28.9-23.8,28.9-48.5C556,73.1,547.5,50.2,527.1,50.2L527.1,50.2z"/>
	<path class="st0" d="M153,145.4v-6.2c8.5,0,10.2-2.6,10.2-5.3c0-3.5-0.8-6.2-1.7-8.8c0,0-1.7-7-3.4-12.3h-33.2l-3.4,11.5
		c-0.8,2.6-1.7,5.3-1.7,8.8c0,3.5,3.4,6.2,8.5,6.2v6.2H95.1v-6.2c8.5,0,11.9-2.6,15.3-12.3L136,47.6c-0.9-3.5-3.4-6.2-8.5-6.2v-6.2
		h27.2c22.1,67,28.1,84.6,28.1,84.6c4.3,15,8.5,19.4,15.3,19.4v6.2H153L153,145.4z M141.1,59.9l-12.8,43.2h26.4L141.1,59.9
		L141.1,59.9z"/>
</g>
</svg>
