<?xml version="1.0" encoding="utf-8"?>
<!-- Generator: Adobe Illustrator 19.1.0, SVG Export Plug-In . SVG Version: 6.00 Build 0)  -->
<svg version="1.1" id="Layer_1" xmlns="http://www.w3.org/2000/svg" xmlns:xlink="http://www.w3.org/1999/xlink" x="0px" y="0px"
	 viewBox="0 0 1024 240.1" style="enable-background:new 0 0 1024 240.1;" xml:space="preserve">
<style type="text/css">
	.st0{fill:#FFFFFF;}
</style>
<g>
	<path class="st0" d="M1,169c3.8-0.2,7.6-0.5,11.4-0.7c3.5-0.1,6.9,0,10.8,0C39.9,113.6,56.4,59.2,73.3,4c-7.9,0-15.2,0-23,0
		c1.4-2.7,3.3-2.1,4.8-2.1c9-0.1,18,0,27,0c10.5,0,21,0,31.5,0c1.6,0,3.2,0,4.8,0c-2.8,3.3-6.2,1.8-9.3,2C105.8,4.2,102.5,4,98.7,4
		c-8.1,26.6-16.2,53-24.2,79.3c3.9,1.2,58.9,1.5,66.2,0.5c8-26.1,16-52.5,24.3-79.5c-7.1-0.6-13.8,0.1-21.7-0.5
		c1.7-1,2.3-1.6,3.1-1.8c0.8-0.2,1.7-0.1,2.5-0.1c19.7,0,39.3,0,59,0c1.3,0,2.5,0.2,4.9,0.4c-4.2,2.7-7.9,1.4-11.3,1.6
		c-3.5,0.2-7,0-10.9,0c-16.6,54.5-33.2,108.9-50,163.8c7.6,1.2,14.9-0.2,23,1c-1.3,1-1.9,1.6-2.7,1.9c-0.8,0.3-1.6,0.1-2.5,0.1
		c-20,0-40,0-60,0c-1,0-1.9-0.2-3.1-0.3c0.3-2,1.6-2.1,2.9-2.1c3.8,0,7.7,0,11.5,0c1.6,0,3.3,0,5.3,0c8.3-27.2,16.5-54,24.8-81.2
		c-22.3,0-44.1,0-66.3,0c-8.2,26.8-16.3,53.6-24.6,80.8c7.2,1.1,14-0.2,20.8,1.8c-0.9,0.4-1.8,1-2.7,1.1c-2.7,0.1-5.3,0.1-8,0.1
		c-17.3,0-34.7,0-52,0c-2,0-3.9-0.5-5.9-0.8C1,169.7,1,169.3,1,169z"/>
	<path class="st0" d="M399,240c-1.4-0.7-3-1.3-4.3-2.2c-3.4-2.1-7-4-9.9-6.6c-4.7-4.3-6.5-9.9-5.8-16.3c0.8-7.8,7.1-12.8,14.9-12.1
		c6.8,0.6,12.2,7,11.7,13.8c-0.5,7.5-6.5,12.9-14.1,12.5c-1.9-0.1-3.9-0.6-6.3-1c1.7,2.8,3.9,4.4,6.3,5.7c7.7,4.3,16.1,5.3,24.7,4
		c5.8-0.9,10.3-4.5,14-9c5.5-6.7,9.2-14.3,11.9-22.4c5.5-16.9,10.7-33.9,16-50.9c1.3-4.2,2.6-8.5,3.2-13.1c-1.2,2-2.4,4-3.5,6.1
		c-4.1,6.9-8.9,13.3-15.2,18.4c-7.1,5.9-15.1,8-24.3,5.8c-10.7-2.5-17.6-11.4-18.2-23.4c-0.3-6.6,1.1-12.9,3-19.1
		c6.5-21.2,13-42.3,19.5-63.5c0.7-2.2,1.2-4.4,2-7.3c-6.1-0.1-11.6-0.3-17.5-0.4c1.3-2.5,3.2-1.9,4.7-1.9c9.3-0.1,18.7-0.1,28-0.2
		c2.9,0,5.9-0.3,9.5-0.5c-0.5,2-0.7,3.4-1.1,4.7c-8.2,27.4-16.5,54.8-24.7,82.2c-1.2,4.1-2.3,8.3-3.1,12.6c-0.8,4.4-0.6,9,3.4,11.8
		c4.1,2.9,8.6,1.9,12.8-0.3c6.1-3.1,10.6-8.1,14.6-13.4c7.5-10.1,13.1-21.3,17-33.2c6.3-18.9,12.1-38,18.1-57.1
		c0.6-2.1,1.3-4.1,2.1-6.4c7.6,0,15.2,0,23.3,0c-0.4,1.5-0.7,3.1-1.1,4.6c-12.5,41.1-25,82.1-37.5,123.2c-3.8,12.5-8.6,24.5-17,34.8
		c-7.7,9.5-17.3,16-29.1,19.1c-0.9,0.2-1.8,0.7-2.7,1.1C415.7,240,407.3,240,399,240z"/>
	<path class="st0" d="M1025,3c-1.8,5.3-3.7,10.6-5.3,16c-13.1,42.8-26.1,85.6-39.1,128.5c-1.4,4.6-2.4,9.4-2.7,14.2
		c-0.4,6.3,4.1,8.8,9.5,5.4c2.3-1.5,4.4-3.6,6.1-5.7c5.7-7.3,9.7-15.5,13.5-23.8c1-2.2,2.1-4.3,3.1-6.5c0.3,0.1,0.7,0.2,1,0.3
		c0,0.7,0.3,1.5,0.1,2c-3.9,9.4-8,18.7-13.9,27c-2.5,3.5-5.5,6.7-8.7,9.5c-8.8,7.5-27.5,4.4-29.7-11.4c-0.6-4.4-0.5-8.9-0.8-13.2
		c-1.3,2-2.7,4.4-4.2,6.7c-3.6,5.7-7.8,10.8-13.1,14.9c-16.4,12.6-35.2,6.3-43.7-9.3c-5.4-10-7-20.9-5.8-32
		c3-25.5,15.4-45.8,35.9-61.1c7.2-5.4,15.3-8.7,24.2-10c12.9-1.9,22.7,4.7,25.6,17.3c0.3,1.2,0.8,2.4,1.4,4.5
		c7.4-24.4,14.6-47.9,21.9-72.2C994.1,4,988.5,4,982.3,3.9c1.6-2.6,3.4-2,4.9-2c8-0.1,16-0.1,24-0.2c1.6,0,3.2-0.5,4.8-0.7
		c3,0,6,0,9,0C1025,1.7,1025,2.3,1025,3z M912.1,148.2c0,3.2,0,6.3,0,9.5c0,1,0.4,2,0.6,2.9c2.1,9.2,8.1,12.6,17.1,9.7
		c4.7-1.5,8.6-4.3,12.1-7.6c7.1-6.8,12-15.1,16-23.9c7.3-16.1,11.9-33.2,16.6-50.2c1.7-6,1.6-12.2-0.3-18.3
		c-4.2-13.7-15.6-17.4-26.6-8.3c-3.8,3.1-7.4,6.8-10.3,10.8C921,95.2,913,120.5,912.1,148.2z"/>
	<path class="st0" d="M344,1c-0.3,1.8-0.5,3.6-1,5.3c-14.1,46.5-28.3,92.9-42.4,139.4c-1.3,4.4-2.4,9-3.2,13.6
		c-0.6,3.1-0.8,6.7,2.6,8.4c3.3,1.7,6.7,0.3,9.1-2.2c2.6-2.7,5.3-5.6,7.2-8.9c3.9-6.7,7.3-13.8,11-20.7c0.9-1.7,1.2-3.8,3.6-5.1
		c-0.1,1.4,0,2.4-0.4,3.2c-4.1,9.8-8.6,19.5-14.9,28.2c-1.7,2.3-3.6,4.4-5.7,6.3c-6.5,6-14.1,6.3-21.9,3.2
		c-7.4-2.9-10.2-9.3-10.8-16.6c-0.6-6.6,0.7-12.9,2.6-19.2c10.6-34.7,21.1-69.4,31.7-104.1c2.3-7.5,4.6-15,6.8-22.4
		c0.5-1.6,0.9-3.2,1.5-5.5c-6.1,0-11.7,0-18.1,0c1.7-2.6,3.5-2,5-2c7.8-0.1,15.7-0.1,23.5-0.2c1.6,0,3.2-0.5,4.8-0.7
		C338,1,341,1,344,1z"/>
	<path class="st0" d="M405,1c-0.5,2.3-0.9,4.6-1.5,6.8c-14,46-28,92-42,138c-1.3,4.3-2.3,8.7-3.2,13.1c-0.6,3-0.6,6,1.8,8.7
		c3.5,1.7,6.8,1,9.5-1.7c2.8-2.8,5.6-5.8,7.6-9.2c4-6.9,7.5-14.1,11.2-21.2c0.8-1.5,1-3.5,3.3-4.5c0,1.1,0.2,2,0,2.6
		c-4.4,10.4-9,20.8-16,29.8c-3.5,4.5-7.5,8.5-13.5,9.7c-9.8,2-22.8-1.9-24-17.9c-0.6-7.1,0.9-13.9,3-20.6c12.8-42,25.6-84,38.4-126
		c0.4-1.3,0.7-2.6,1.2-4.5c-6,0-11.6-0.1-18-0.1c1.8-2.5,3.6-2,5.1-2c7.8-0.1,15.7-0.1,23.5-0.2c1.6,0,3.2-0.5,4.8-0.7
		C399,1,402,1,405,1z"/>
	<path class="st0" d="M489,240c5.2-17.2,10.4-34.3,15.6-51.6c1-0.2,1.8-0.6,2.5-0.6c9.6,0,19.3-0.1,28.9,0.3
		c3.2,0.1,6.5,1.3,9.4,2.7c3.7,1.8,5.4,5.2,5.5,9.4c0.2,8.5-4.7,15.9-12.7,19c-1.4,0.5-2.8,1-4.7,1.7c0.7,1.7,1.3,3.1,1.9,4.6
		c2.1,4.8,4.3,9.7,6.4,14.5c-5,0-10,0-15,0c-2.5-5.9-4.9-11.8-7.4-17.7c-3.7,0-7.1,0-10.9,0c-1.6,6-3.1,11.9-4.7,17.7
		C499,240,494,240,489,240z M516.5,197.6c-1.5,4.7-2.9,9.3-4.5,14.4c5.4,0,10,0.2,14.6-0.1c4.8-0.3,7.9-3.2,9-7.9
		c0.9-3.6-0.3-6-4.1-6.4C526.7,197.3,521.7,197.6,516.5,197.6z"/>
	<path class="st0" d="M899,240c5.3-17.3,10.6-34.5,15.9-51.8c1-0.2,1.7-0.4,2.3-0.4c9.5,0,19-0.1,28.4,0.2c6,0.2,11.9,1.6,14.5,7.8
		c2.6,6.2,0.5,12.1-3.2,17.4c-1.9,2.8-4.7,4.7-7.9,5.9c-1.5,0.6-3.1,1.1-5.3,1.8c1.6,3.4,3,6.6,4.5,9.8c1.5,3.1,3.1,6.2,4.7,9.3
		c-5.3,0-10.7,0-16,0c-2.5-5.9-4.9-11.9-7.4-17.8c-3.7,0-7,0-10.7,0c-1.7,6-3.3,11.9-4.9,17.8C909,240,904,240,899,240z
		 M922.2,212.2c2.5,0,4.1,0,5.8,0c3,0,6,0.1,8.9-0.1c4.8-0.4,7.9-3.2,9-7.9c0.8-3.7-0.4-5.8-4.2-6.4c-4.9-0.8-9.8-0.5-15-0.2
		C925.2,202.3,923.8,206.9,922.2,212.2z"/>
	<path class="st0" d="M728,240c5.2-17.2,10.3-34.3,15.5-51.7c1-0.2,1.7-0.5,2.5-0.5c9.3,0,18.6,0,28,0.2c2.5,0,5,0.5,7.3,1.3
		c6.9,2.3,9.9,7.8,8.4,14.9c-1.7,7.7-6,13.2-13.8,15.6c-0.9,0.3-1.8,0.6-3.3,1.1c0.7,1.7,1.3,3.1,1.9,4.6c2.1,4.8,4.3,9.7,6.4,14.5
		c-5,0-10,0-15,0c-2.5-5.9-5-11.8-7.5-17.7c-3.7,0-7.1,0-10.9,0c-1.6,6-3.1,11.9-4.6,17.7C738,240,733,240,728,240z M750.9,212
		c5.5,0,10.3,0.3,15.1-0.1c4.4-0.3,7.2-2.9,8.4-7.3c1.1-4.3,0.1-6.6-4.3-7c-4.7-0.4-9.5-0.1-14.6-0.1
		C754,202.2,752.6,206.8,750.9,212z"/>
	<path class="st0" d="M686,240c-1.5-0.6-3-1.3-4.5-1.9c-8.3-3.3-12.5-10.3-10.9-19c0.8-4.6,2.1-9.1,3.6-13.4
		c3.4-9.9,10.2-16.4,20.7-18c5.9-0.8,12-1.1,17.8-0.3c11.6,1.7,17.3,10.4,15,22.1c-0.9,4.5-2.3,9-4,13.3c-3.2,8.3-9.3,13.6-18,15.8
		c-1.2,0.3-2.4,0.9-3.6,1.3C696.7,240,691.3,240,686,240z M695.5,229.1c6.6,0.1,11.5-2.2,13.9-7.9c1.9-4.4,3.2-9.1,4.3-13.7
		c0.8-3.3-0.4-6.3-3.4-8.2c-6.3-4.1-17.7-1.4-20.9,5.5c-2.1,4.4-3.5,9.3-4.4,14.2c-1.1,5.8,1.8,9.1,7.7,10
		C693.8,229.1,695,229.1,695.5,229.1z"/>
	<path class="st0" d="M551,240c2-7,4-14.1,6.1-21c3-10.2,6.2-20.3,9.4-30.8c15,0,29.9,0,45.4,0c-1,3.3-1.9,6.4-3,9.9
		c-10.2,0-20.3,0-30.6,0c-1.1,3.4-2.1,6.3-3.2,9.9c8.4,0.8,16.5-0.1,25.2,0.5c-1.1,3.7-2.1,6.9-3.2,10.3c-8.5,0-16.6,0-25.2,0
		c-1,3.3-1.9,6.4-3.1,10.2c5.4,0.5,10.3,0.2,15.2,0.3c4.9,0.1,9.9,0,15.5,0c-1.2,4-2.3,7.3-3.3,10.6C581,240,566,240,551,240z"/>
	<path class="st0" d="M843,240c2-7,4-14.1,6-21c2.9-9.6,5.8-19.1,8.7-28.6c0.2-0.6,0.4-1.2,0.8-2.2c14.9,0,29.8,0,45.2,0
		c-1,3.3-1.9,6.4-3,10c-5.2,0-10.4,0-15.5,0c-5,0-9.9,0-15.2,0c-1.1,3.3-2,6.3-3.2,9.9c8.5,0.5,16.6-0.1,25.2,0.4
		c-1.2,3.7-2.2,7-3.2,10.4c-8.5,0-16.6,0-25.2,0c-1,3.3-2,6.4-3.1,10.2c5.4,0.5,10.4,0.2,15.3,0.3c4.9,0.1,9.9,0,15.5,0
		c-1.2,4-2.2,7.3-3.3,10.6C873,240,858,240,843,240z"/>
	<path class="st0" d="M608,240c0.1-1.1,0.1-2.3,0.5-3.4c4.7-15.4,9.4-30.8,14.1-46.3c0.2-0.6,0.5-1.2,0.7-1.8
		c0.3-0.2,0.6-0.5,0.9-0.5c10.1,0,20.3-0.1,30.4,0.1c2.2,0,4.6,0.9,6.7,1.8c5.9,2.5,8.3,7.5,7,13.8c-0.4,1.8-0.9,3.5-1.4,5.3
		c-2.7,8.6-8.8,13.1-17.6,13.9c-5.3,0.5-10.6,0.5-15.9,0.7c-2,0.1-3.9,0-6.3,0c-1.8,5.7-3.4,11-5.1,16.4
		C617.3,240,612.7,240,608,240z M630.1,213.7c5.1,0,9.4,0.4,13.6-0.1c7.5-0.9,11-7.2,8.5-15.1c-5.3-2.2-11.1-1.1-17.1-1.2
		C633.5,202.7,631.9,207.9,630.1,213.7z"/>
	<path class="st0" d="M802,240c2.9-9.7,5.7-19.4,8.6-29.1c1.2-3.9,2.3-7.9,3.8-12.6c-6.3,0-12,0-18.4,0c1.2-3.9,2.2-7,3.2-10.2
		c16.9,0,33.5,0,50.7,0c-1,3.4-2,6.5-3,10c-5.9,0-11.6,0-17.5,0c-0.8,2.3-1.5,4.2-2,6.1c-3.1,10.2-6.3,20.3-9.3,30.5
		c-0.5,1.7-0.7,3.5-1,5.3C812,240,807,240,802,240z"/>
	<path class="st0" d="M603.6,57.2c7.9,0,15.4,0,23.5,0c-0.6,2.1-1.1,4-1.7,5.8c-8.5,27.5-17,55-25.4,82.5c-1.1,3.6-1.8,7.4-2.4,11.2
		c-0.3,2.1-0.1,4.3,0.4,6.4c0.8,3.7,3.2,5.6,7,6.1c4.1,0.5,7.9-0.2,11.7-1.9c6-2.7,11.2-6.6,15.7-11.4
		c17.7-18.9,28.7-41.1,32.4-66.8c0.7-5,0.1-10.3,0.1-16.3c-1.5,1.6-2.6,2.7-3.7,3.8c-3.7,3.5-9.3,4.5-13.9,2.5
		c-4.9-2.2-7.6-6.5-7.4-11.9c0.1-5.3,3.2-9.6,8.1-11.5c6.5-2.5,14,0,17,6.4c1.7,3.5,2.7,7.6,3,11.5c1.2,12.3-1,24.2-4.9,35.9
		c-6.3,18.9-15.5,36.1-30,50c-7.2,6.9-15.5,11.9-25.6,13.7c-13.2,2.3-27-5.4-28.4-22.8c-0.3-3.6,0-7.2-0.7-10.9
		c-1.5,2.7-3,5.5-4.6,8.1c-4.6,7.6-9.7,14.8-16.9,20.1c-6.1,4.5-12.7,6.9-20.6,5.4c-11.8-2.3-19.4-10.7-20.1-22.7
		c-0.4-6.4,0.6-12.6,2.5-18.7c6.7-22,13.4-43.9,20.1-65.9c0.6-1.9,1.1-3.8,1.7-6c-5.8-1.7-11.6,0.1-17.1-1.2
		c0.6-2.3,2.4-1.6,3.7-1.6c8.5-0.1,17,0,25.5-0.1c4,0,7.9-0.3,12.3-0.6c-0.3,1.4-0.3,2.5-0.6,3.5c-8.5,28.2-17,56.4-25.5,84.6
		c-1.5,5.1-3,10.2-2.8,15.7c0.3,6.8,4,10.1,10.8,8.9c2.7-0.5,5.4-1.7,7.7-3.2c5.9-3.7,10.2-9,14.1-14.7
		c8.6-12.5,14.2-26.3,18.6-40.7c5.1-16.4,10.1-32.8,15.1-49.1C602.6,60.1,603,58.8,603.6,57.2z"/>
	<path class="st0" d="M885.3,101.5c-2.7,30.4-15.4,54.4-44.1,67.7c-12.8,5.9-26.1,6.7-38.8-1c-11.8-7.2-18.3-18.2-20.4-31.7
		c-3.3-21.5,3.4-40.4,16.4-57.3c8.9-11.5,20.3-19.5,34.4-23.4c22.8-6.3,41.4,6.3,48.9,25.5C884.3,87.8,885.4,94.5,885.3,101.5z
		 M801.6,144.5c0.1,5.7,0.2,11.4,2.4,16.7c2.6,6.4,7.3,9.7,14.2,9.9c7,0.2,12.9-2.4,17.4-7.4c4-4.4,7.7-9.2,10.6-14.4
		c11-19.8,16.7-41.2,18.7-63.7c0.6-6.7,0-13.3-2.6-19.6c-2.1-4.9-5.5-8.3-11-9.2c-6.2-0.9-11.9,0.2-17,4c-5.5,4.1-9.5,9.4-12.8,15.2
		C809.4,97.3,803.2,120.3,801.6,144.5z"/>
	<path class="st0" d="M670.6,126.6c2-29.8,14.7-53.1,41.9-67.2c8.4-4.3,17.6-6.4,27.1-4.9c15.6,2.5,25.6,12.1,31.4,26.2
		c4.7,11.3,4.7,23,2,34.8c-4.9,21-15.8,37.8-34.2,49.6c-8.2,5.2-17.2,8.2-26.8,8.4c-12,0.3-22.1-4.5-29.8-13.6
		C674,150.4,670.5,139.2,670.6,126.6z M754.4,82.8c-0.1-8.5-1-13.6-3.3-18.1c-2.6-5-6.7-7.6-12.4-8c-6.5-0.4-12.3,1.4-16.9,5.9
		c-3.3,3.3-6.4,6.8-9,10.6c-7.7,11.3-12.3,23.9-16,37c-3.5,12.5-6.3,25.2-5.8,38.3c0.2,4.6,1.2,9.3,2.8,13.6c2.2,5.8,6.9,8.7,13.2,9
		c6.2,0.3,11.5-1.6,16-5.7c2.6-2.3,5.1-4.9,7.1-7.7C745.7,135.2,752.1,109.6,754.4,82.8z"/>
	<path class="st0" d="M169.6,126.8c2-29.8,14.6-53.1,41.7-67.3c8.4-4.4,17.6-6.4,27.1-5c14.5,2.3,24.4,10.9,30.5,23.9
		c5.6,11.9,5.9,24.5,3.1,37.1c-4.7,20.6-15.4,37.3-33.3,49.1c-8.4,5.5-17.7,8.7-27.7,9c-12,0.3-22.1-4.4-29.9-13.5
		C173,150.6,169.5,139.4,169.6,126.8z M253.3,82.8c0-5.7-0.3-11.4-2.6-16.7c-2.7-6.1-7.2-9.2-14-9.4c-6-0.2-11.3,1.5-15.5,5.6
		c-3.4,3.4-6.6,7-9.4,11c-6.2,8.8-10.2,18.7-13.5,28.8c-4.9,15.1-8.8,30.4-8.2,46.4c0.2,4.6,1.2,9.3,2.8,13.6
		c2.1,5.8,6.9,8.7,13.2,9.1c6.6,0.4,12.3-1.7,16.8-6.3c3.6-3.7,7.1-7.6,9.7-12C245.4,131.3,251.5,107.7,253.3,82.8z"/>
	<path class="st0" d="M489.7,26c-4.9,0-9,0-13.4,0c-1.7,5.3-3.4,10.5-5.1,15.8c-3.7,0-7.1,0-11.3,0C464,28.4,468,15.3,472,2.2
		c3.8,0,7.2,0,11.3,0c-1.4,5-2.7,9.6-4.1,14.5c4.4,1.1,8.6,0.4,13.2,0.5c1.6-5,3.2-9.8,4.8-14.9c3.5,0,6.9,0,10.3,0
		c0.1,3.9-5.1,22.4-11.2,39.5c-3.4,0-7,0-11.1,0C486.6,36.5,488.1,31.5,489.7,26z"/>
	<path class="st0" d="M546.6,10.3c-7,0-13.5,0-20.3,0c-0.8,2.4-1.6,4.6-2.6,7.7c5.8,0,10.9,0,16.4,0c-1,3-1.7,5.4-2.6,8.1
		c-5.4,0-10.6,0-16.1,0c-0.8,2.5-1.5,4.6-2.5,7.6c6.9,0,13.3,0,20.4,0c-0.9,3.3-1.5,5.7-2.2,8.2c-10.8,0-21.2,0-32.1,0
		c4.1-13.3,8-26.3,12-39.6c10.6,0,21,0,32.1,0C548.3,4.9,547.5,7.3,546.6,10.3z"/>
	<path class="st0" d="M442,41.8c-3.9,0-7.2,0-11.2,0c1.6-5.4,3.1-10.4,4.6-15.4c1.5-5.1,3.1-10.1,4.8-15.9c-4.3,0-8.2,0-12.9,0
		c0.9-3.2,1.6-5.6,2.3-8.3c12.1,0,24,0,36.4,0c-0.8,2.7-1.6,5-2.4,7.8c-3.7,0-7.5,0-11.7,0C448.5,20.8,445.2,31.2,442,41.8z"/>
</g>
</svg>
