<?xml version="1.0" encoding="utf-8"?>
<!-- Generator: Adobe Illustrator 19.1.0, SVG Export Plug-In . SVG Version: 6.00 Build 0)  -->
<svg version="1.1" id="Layer_1" xmlns="http://www.w3.org/2000/svg" xmlns:xlink="http://www.w3.org/1999/xlink" x="0px" y="0px"
	 viewBox="0 0 704 135.2" style="enable-background:new 0 0 704 135.2;" xml:space="preserve">
<style type="text/css">
	.st0{fill:#FFFFFF;}
</style>
<path class="st0" d="M15.1,126.2L35.1,6c0,0,1.8-3.2,4,0s46.8,96,46.8,96s1.2,2.2,2.5-0.5s45.8-96,45.8-96s3.8-2.8,4.5,1.2
	s17,113,17,113s1.2,9,8.8,10.8l6.2,1.2c0,0,3.2,1.2,0.5,2.5h-43c0,0-1.8-0.2-1.8-1.5c0,0-0.2-1.7,1.5-1.7c1.7,0,7.2,1.3,7.3-4.3
	c0.2-5.7-10.3-76.3-10.3-76.3s-0.5-2.2-1.5,0.2c-1,2.3-40.3,83.5-40.3,83.5s-1.7,1.8-3-0.2S39.8,53.1,39.8,53.1s-1.7-2-2,0.2
	c-0.3,2.2-8.5,71.3-8.5,71.3s-1.7,6.2,10,7.3c0,0,4.2-0.3,4.3,1c0.2,1.3,0,2.2-2.2,2H3.8c0,0-1.5-0.3-1.3-2c0,0-0.3-1.5,1.5-1.7
	c1.8-0.2,6-0.3,6-0.3S13.7,131.2,15.1,126.2z M534.7,130.9c0,0-4.2,0.2-6,0.3s-1.5,1.7-1.5,1.7c-0.2,1.7,1.3,2,1.3,2h37.7
	c2.2,0.2,2.3-0.7,2.2-2c-0.2-1.3-4.3-1-4.3-1c-11.7-1.2-10-7.3-10-7.3s8.2-69.2,8.5-71.3c0.3-2.2,2-0.2,2-0.2s38.8,78.8,40.2,80.8
	s3,0.2,3,0.2S647,52.9,648,50.6c1-2.3,1.5-0.2,1.5-0.2s10.5,70.7,10.3,76.3c-0.2,5.7-5.7,4.3-7.3,4.3c-1.7,0-1.5,1.7-1.5,1.7
	c0,1.3,1.8,1.5,1.8,1.5h43c2.8-1.2-0.5-2.5-0.5-2.5l-6.2-1.2c-7.5-1.8-8.8-10.8-8.8-10.8s-16.2-109-17-113s-4.5-1.2-4.5-1.2
	s-44.5,93.2-45.8,96s-2.5,0.5-2.5,0.5S566,9.2,563.7,6s-4,0-4,0l-20,120.2C538.3,131.2,534.7,130.9,534.7,130.9z M197.1,122.2
	c0,0-2,6.8-9.8,8.8l-4.8,0.5c0,0-1.5-0.2-1.8,1c0,0-0.8,2,1.5,2h36.8c0,0,2.6,0.3,2.6-1.4c0,0,0.5-1.8-1.7-1.8h-5.8
	c0,0-5.8,0-4.3-5.8s11.8-33.2,11.8-33.2s0.7-1.7,2.7-1.7h34.8c0,0,2.3-0.7,3,1.5l12.8,33.2c0,0,2.3,4.7-2.7,5.5s-6.3,1.2-6.3,1.2
	s-1,0.2-1,1.2c0,0-0.3,1.7,1,1.7h44.2c0,0,1.7-0.3,1.8-2c0,0-0.2-1.7-2-1.5c0,0-11.2,0.8-17.7-16.5L248.7,6.2c0,0-2.2-2.7-4.2,0.2
	S197.1,122.2,197.1,122.2z M243.2,40.7l14.8,40c0.7,1.8-1.3,2-1.3,2s-27.3,0.2-29.3,0s-0.8-2.5-0.8-2.5l14.3-39.3
	C242,37.9,243.2,40.7,243.2,40.7z M314.3,10.1c0,1.7,2.5,1.5,2.5,1.5c10.8-0.3,18.3,9.2,18.3,9.2s28.8,45,32.2,49.3s0.8,6.3,0.8,6.3
	s-29,41.2-34,47.5s-11.5,7.8-13.2,7.8s-2,1.7-2,1.7c0,1.2,2.3,1,2.3,1c3.2-0.5,11.8-0.7,11.8-0.7c3.8-0.5,20.2,1.2,23,0.8
	c2.8-0.3,1.7-1.5,1.7-1.5c-0.2-1.3-4.2-1.3-4.2-1.3c-8.7-1.2-5-7.5-5-7.5s23.8-37.3,25.5-39.8c1.7-2.5,2.3,0,2.3,0
	s22.3,35.2,26.2,41.2c3.8,6-4.5,5.3-6.2,5.5s-2.5,1-2.7,1.7c-0.2,0.7,0,1.8,1.7,1.7s15.2-0.7,18.5-0.8c3.3-0.2,28.8,1.5,28.8,1.5
	c2.5,0,2.3-0.8,2.5-1.7c0.2-0.8-4.7-1.3-4.7-1.3c-10.8-1.5-15-9.2-15-9.2s-35.5-52.2-37.3-55.2s-0.7-4.3-0.7-4.3s34.5-47,35.7-49.3
	s4.2-1.7,4.2-1.7s6.7-0.2,8.3-0.7s1.3-1.3,1.3-1.3c-0.2-1.8-3.7-1.7-3.7-1.7s-13,0-15.3,0.3C415.8,9.4,399,8.6,399,8.6
	c-1.5,0.2-2,1.5-2,1.5c0,1.5,1.7,1.7,1.7,1.7s2.2-0.3,6.3,0.7s2.5,5.5,2.5,5.5s-23.5,35.2-25,37.5c-1.5,2.3-2.8-0.3-2.8-0.3
	s-23-37.5-23.8-40.2c-0.8-2.7,1.5-3,1.5-3h5.7c2.2,0,1.5-2.2,1.5-2.2c0-1.3-1.8-1-1.8-1h-45.8C315.3,8.9,314.3,8.4,314.3,10.1z
	 M458.8,11.9l6.8,0.3c7.5,0.3,6.7,11.7,6.7,11.7s-0.5,96.8-1.3,102.3s-8.5,5.3-10.3,5.3c-1.8,0-3,0.2-3.2,1.5c-0.2,1.3,1,2,2.7,2
	c1.7,0,11.2-0.2,19.3-0.7s28,0.8,30.3,0.8c2.3,0,1.8-1.8,1.8-1.8c0-1.3-3-1.3-3-1.3l-9.2-0.5c-6.5-1-6.3-13-6.3-13s-0.8-86.8,0-97.5
	c0.8-10.7,9-8.7,11.3-9c2.3-0.3,3.3-0.8,2.5-2.5c-0.8-1.7-6.8-0.8-6.8-0.8C476.3,10.4,459,8.2,459,8.2s-1.3,0-1.3,1.5
	C457.7,9.7,457.2,11.9,458.8,11.9z"/>
<g>
	<path class="st0" d="M697.2,1.8c3.8,0,6.8,3.1,6.8,6.8c0,3.7-3,6.7-6.8,6.7c-3.8,0-6.8-3-6.8-6.7C690.4,4.9,693.4,1.8,697.2,1.8z
		 M697.2,14.5c3.2,0,5.7-2.8,5.7-5.9c0-3.2-2.5-6-5.7-6c-3.2,0-5.7,2.8-5.7,6C691.5,11.8,694,14.5,697.2,14.5z M694,11.9
		c0.8-0.1,1-0.1,1-0.6V6.2c0-0.9-0.1-1-1-1V4.9h3.5c1.2,0,2.3,0.6,2.3,1.8c0,1-0.7,1.8-1.5,2l1.3,2.2c0.4,0.8,0.7,1,1.2,1v0.3h-1.2
		c-0.6,0-1.1-1.4-2.4-3.2h-1v2.4c0,0.5,0.1,0.5,1,0.6v0.3H694V11.9z M696.2,8.6h0.9c0.9,0,1.3-0.7,1.3-1.8c0-1.2-0.6-1.5-1.4-1.5
		h-0.8V8.6z"/>
</g>
</svg>
