<?xml version="1.0" encoding="utf-8"?>
<!-- Generator: Adobe Illustrator 19.1.0, SVG Export Plug-In . SVG Version: 6.00 Build 0)  -->
<svg version="1.1" id="Layer_1" xmlns="http://www.w3.org/2000/svg" xmlns:xlink="http://www.w3.org/1999/xlink" x="0px" y="0px"
	 viewBox="0 0 1492 211.6" style="enable-background:new 0 0 1492 211.6;" xml:space="preserve">
<style type="text/css">
	.st0{fill:#FFFFFF;}
</style>
<g>
	<path class="st0" d="M737.6,211.6c1.8-3.3,3.6-5.6,4.4-8.1c1.8-5.7-1.2-10-7.1-9.5c-8.3,0.7-16.4,2.3-24.6,3.6
		c-8,1.3-16.1,2.9-24.1,3.9c-3.7,0.5-7.6,0.2-11.4-0.1c-15.7-1.3-24.4-18.7-20.6-31.8c1.4-4.9,4.7-8.4,8.6-11.3c2.4-1.8,5-3.2,7.9-5
		c0-18.1,0-36.6,0-54.9c-4.4-1.5-8.6-0.6-10.4,2.2c-2.2,3.5-0.5,6.3,2.8,9.4c-5.8-0.4-9.3-2.7-11.6-6.7c-5.7-9.7-1.6-22,8.9-26.1
		c3.2-1.3,6.7-1.8,10.6-2.9c0-2.3,0-4.7,0-7.2c0-8.5,0.1-17-0.1-25.5c0-2.3-0.5-4.6-1.2-6.8c-1-3.1-3.3-5-6.6-5.3
		c-3.6-0.3-6.1,1.4-7.8,4.3c-0.8,1.4-1.5,2.8-3.1,4c0.3-1.9,0.4-3.8,0.9-5.6c4-14.1,20.8-21.5,33.8-14.8c7.2,3.7,10.4,10.1,11,17.8
		c0.2,1.8,0.1,3.7,0.1,5.5c0,35,0,70,0,105c0,2,0,3.9,0,6.2c4.8,0.9,9.1,1.8,14.1,2.8c0-23.7,0-46.8,0-69.9c0-22.8,0-45.7,0-68.5
		c0.6,0,1.2,0,1.7,0c0,5.6,0,11.3,0,16.9c0.4,0.2,0.7,0.4,1.1,0.5c8-6.4,16-12.7,24.3-19.4c6.1,5.4,12.1,10.6,18.3,16.1
		c2.9-2.3,5.6-4.6,8.4-6.8c0.3,0.3,0.6,0.7,0.9,1c-1.9,3.6-5.9,5.1-8.6,8.4c0,1.8,0,3.8,0,5.8c0,32.7,0.1,65.3-0.1,98
		c0,4.4-0.6,9-1.6,13.3c-1,4.6-4.3,7.7-8.7,9.6c-7.1,3.1-14.2,2.8-21.5,1.2c-8.9-2-17.8-4.4-26.8-6c-7.2-1.3-14.5-2.4-21.8-0.5
		c-2.4,0.6-4.9,1.4-6.9,2.7c-3.6,2.3-5.3,6-4.6,10.3c0.8,4.3,4,7.3,8.7,7.7c3.5,0.3,7,0.2,10.4-0.3c12-1.9,23.9-4.1,35.9-6
		c3.9-0.6,7.9-1.1,11.9-1.3c5-0.2,9.8,0.8,14.4,3.1c16.8,8.3,13.3,29,2.1,36.2C746.2,208.9,742.4,210.8,737.6,211.6z M714.4,154.9
		c9.4,2.4,16.8-2.8,17.2-12.5c0.5-13.8,0.2-27.6,0-41.5c0-1.6-1.5-3.7-2.9-4.7c-4.5-3.3-9.4-2.2-14.3,2.8
		C714.4,117.4,714.4,136,714.4,154.9z M714.4,77c2.3,1.1,4.6,2.8,7.2,3.4c5.6,1.4,10.1-2.4,10.1-8.2c0-8.5,0.1-16.9-0.1-25.4
		c0-1.7-0.3-3.9-1.4-5c-3.2-3.3-6.8-6.2-10.5-9.4c-2.2,1.8-3.9,3.3-5.4,4.5C714.4,50.3,714.4,63.3,714.4,77z M731.4,80.2
		c-5.8,4.3-11.3,3.7-16.9,0.1c0,5.2,0,9.8,0,15.3c5.6-5.3,11.2-4.1,16.9-1.3C731.4,89.5,731.4,85.3,731.4,80.2z"/>
	<path class="st0" d="M88.1,2.4c7.7-1.1,14.7,1,20.8,6c7,5.7,7.6,13.4,5.6,21.4c-3,11.7-12.1,16-23.3,17.8c0,8.7,0,17.5,0,26.7
		c3.8,3.2,7.9,6.5,12.5,10.3c-4.4,3.7-8.5,7.2-12.6,10.6c0,11.8,0,23.4,0,36.1c9.5-6.8,16.1-14.8,20.6-24.7c0.4,0.1,0.8,0.2,1.2,0.2
		c0.1,1.5,0.4,3,0.3,4.5c-2.4,24.8-17,43.3-42.4,48.6c-34.3,7.2-66-17.9-69-53C-1,74.2,23.5,50.2,45.3,43.6c0.9-0.3,1.9-0.4,3.2-0.1
		c-8,5.8-15.1,12.3-18.1,22.2c6.9-1.9,13.1-5.3,19.6-8.1c6.4-2.7,12.8-5.5,19.2-8.3c1.7,3.3,2.3,48.9,0.8,58.2
		c-10.6,5.4-21.5,10.9-32.5,16.5c11.3,14.6,33.9,19.6,50.3,8.8c0.1-1.1,0.4-2.4,0.4-3.7c0-10-0.1-20,0.1-30c0-2.8-0.9-4.7-3.1-6.4
		c-3.2-2.4-6.2-5-9.8-8.1c4.4-3.7,8.4-7,12.6-10.5c0-8.7,0-17.5,0-26.5c-8.2-2-16.2-4-24.3-6c-10-2.6-20-5.2-30-7.7
		c-1.9-0.5-3.9-0.7-5.9-0.7c-9.1,0-13.8,7.7-9.8,15.8c0.3,0.6,0.6,1.1,1.3,2.6c-3.8-0.8-5.9-2.7-7.8-5C2.1,35,8.2,18.5,17.8,12.3
		C26,7,34.8,4.9,44.5,7.7c12.1,3.6,24.2,7.2,36.4,10.6c3.6,1,7.5,1.5,11.3,1.6c4.3,0.1,7.4-2.7,7.9-6.2c0.4-3.5-1.8-6.9-5.8-8.3
		c-2.1-0.7-4.3-1.2-6.5-1.7C87.9,3.2,88,2.8,88.1,2.4z M43.7,118.4c1.2-7.4,0.8-51.6-0.6-55.5c-4.7,2.2-9.4,4.2-13.9,6.5
		c-1.1,0.6-2,2.3-2.3,3.6c-1,4.4-2.1,8.8-2.4,13.2c-0.9,12.9,3,24.5,10.4,35c0.2,0.2,0.6,0.3,1.2,0.6
		C38.6,120.9,41.1,119.7,43.7,118.4z"/>
	<path class="st0" d="M1132.4,95.4c-4.2-3.5-8.3-7-12.8-10.8c4.5-3.8,8.7-7.3,12.9-10.8c0-8.7,0-17.4,0-26.2
		c-7.4-1.8-14.6-3.6-21.8-5.5c-10.8-2.8-21.6-5.6-32.4-8.3c-2.1-0.5-4.3-0.8-6.4-0.8c-9,0-13.6,7.7-9.7,15.9c0.3,0.5,0.5,1.1,1,2.4
		c-3.6-0.7-5.6-2.5-7.4-4.7c-8.5-10.3-5.5-27.1,6.2-34.6c8.2-5.3,17.1-7.3,26.7-4.5c12.1,3.6,24.2,7.2,36.4,10.6
		c3.6,1,7.5,1.5,11.3,1.5c4.1,0.1,7.1-2.6,7.7-5.8c0.7-3.6-1.4-7-5.4-8.5c-2.2-0.8-4.6-1.3-6.8-2.4c8.1-1.9,15.2,0.3,21.4,5.6
		c6.9,6,7.7,13.7,5.1,21.9c-3.4,11-12,15.3-23,16.9c0,8.8,0,17.7,0,26.8c4,3.3,8.1,6.6,12.5,10.3c-4.4,3.8-8.6,7.3-12.6,10.7
		c0,11.9,0,23.5,0,35.6c5.6-2.7,9.1-6.9,12.4-11.1c3.2-4.1,5.9-8.6,9.2-13.5c1.4,3.9,0.5,7.3-0.1,10.6c-4.5,24.3-22.2,41.4-46.7,44
		c-20,2.1-37.3-4.5-50.3-20.2c-26.8-32.6-14.1-82,29.7-97.1c0.9-0.3,1.9-0.4,3.1-0.2c-7.7,6.1-15.2,12.2-18.7,23.2
		c13.8-6.1,26.6-11.8,39.4-17.5c1.6,3.4,2.2,49.3,0.8,58.3c-5.1,2.6-10.6,5.4-16,8.2c-5.5,2.8-10.9,5.6-16.5,8.4
		c12.1,15.1,34.6,19.4,50.8,8.5C1132.4,120.4,1132.4,108.1,1132.4,95.4z M1088.3,62.4c-5.6,2.6-10.5,4.8-15.3,7.2
		c-0.9,0.4-1.5,1.8-1.8,2.9c-5.6,17.6-2.4,33.8,7.9,48.8c0.2,0.2,0.6,0.3,1.3,0.6c2.6-1.2,5.4-2.6,8-3.9
		C1088.3,99.6,1088.3,81.5,1088.3,62.4z"/>
	<path class="st0" d="M336.1,48.1c0,25.6,0,51.3,0,77.2c9.2,2.4,17.7,5.9,24.4,13.5c2.3-2.3,4.5-4.4,6.6-6.5c0.3,0.3,0.7,0.7,1,1
		c-7.2,9.3-15.7,17.5-23.7,26.8c-1.5-1.2-2.6-2.5-3.9-3.2c-3.5-1.9-6.9-4.1-10.7-5.1c-5.7-1.5-10.7,1.8-12.5,7.3
		c-1.6,4.9,0.8,10.2,6.1,12.8c1.7,0.9,3.6,1.5,5.8,2.3c-12,3.3-26-6.8-27.2-19.3c-1.5-14.5,9-26.9,24.3-29c2.3-0.3,4.5-0.7,6.8-1
		c0-11.7,0-22.9,0-34.2c-4.3-1.1-7.7-0.1-10.4,2.7c-2,2.1-1.6,4.3,1.4,9.4c-3.4,0.3-5.9-1.3-8.1-3.3c-9.2-8.3-9.2-26.5,6.3-31.5
		c3.4-1.1,7.1-1.6,11-2.4c0-7.8,0.5-15.4-0.2-23c-0.4-4.6-3.9-8-8.3-10c-3.3-1.5-6.1-0.5-8.2,2.7c-1.1,1.7-2,3.7-3.1,5.8
		c-3.3-9.8,1.4-21.7,10.2-27.1c8.2-4.9,20.1-3.3,26.4,4.4c4.2,5.1,7.5,11,10.7,16.8c12.7,22.7,25.1,45.5,37.7,68.2
		c0.5,0.8,1,1.6,2.2,3.4c0-21.8,0-42.5,0-63.6c-7.3-1.3-14.3-3.2-20.3-9.3c-2.3,2.8-4.3,5.3-6.4,7.8c-0.3-3.6,14.5-21.5,22.6-28.6
		c1.2,0.9,2.4,2.1,3.9,2.7c3.3,1.5,6.6,3.3,10.1,3.8c6.6,1,10.7-1.6,13.7-7.6c0.4-0.8,0.8-1.7,1.8-3.5c3.3,8.9,1.6,16.1-2.5,23
		c-4.4,7.4-11.9,9.7-20.1,11.6c0,38.8,0,77.4,0,115.8c-3.8,2-5.4,0.1-6.8-2.4c-7.6-13.9-15.2-27.8-22.8-41.6
		c-11.7-21.3-23.4-42.6-35.1-63.9c-0.6-1.1-1.4-2.2-2.1-3.3C336.7,47.9,336.4,48,336.1,48.1z"/>
	<path class="st0" d="M533.9,76.4c6.9-6.1,13.2-11.7,20-17.8c6.1,5.3,12.1,10.5,18.5,16.1c-1.8,2.1-3.6,3.9-4.9,5.8
		c-1,1.4-2.1,3.2-2.1,4.8c-0.2,15.7-0.1,31.3-0.1,47.3c5.6,4.6,11.2,9.2,17.6,14.4c0.9-2.2,1.9-3.5,1.9-4.9
		c0.1-19.2,0.1-38.3,0.1-58.2c-2.2-1.8-4.8-4-8-6.6c7.1-6.6,13.7-12.6,20.5-18.9c6.3,5.1,12.3,10.1,18.7,15.2c2.4-2,4.8-3.9,7.1-5.8
		c0.3,0.3,0.6,0.7,0.9,1c-4.6,5.3-10.5,9.4-15.9,14.9c0,16,0,32.5,0,49.3c-14.4,8.9-28.6,17.7-43.1,26.6c-7.4-5.8-14.5-11.3-22-17.1
		c-7.2,5.6-14.4,11.2-21.8,16.9c-6.7-5.5-13.1-10.8-19.8-16.2c-2.9,1.9-5.8,3.7-9.2,6c-0.2-3,1.8-3.6,3.1-4.6
		c1.4-1.2,2.9-2.2,4.3-3.2c0.2-0.8,0.4-1.5,0.4-2.1c0-15.3,0-30.7,0-46c0-5.2-2-9.4-5.7-12.8c-1.5-1.3-2.8-2.8-4.4-4.1
		c-7.7-6.1-9-19.7-0.8-28.2c3.8-3.9,8.2-6.8,13.5-8.1c1-0.3,2.2,0,4,0c-1.2,1.3-2,2.2-2.7,3c-4.3,5-4.2,10.1,0.6,14.6
		c2.8,2.6,5.9,5,9.1,6.9c7.5,4.5,10.6,10.8,10.4,19.5c-0.3,16-0.1,32-0.1,48.2c4.6,3.7,9.1,7.3,13.3,10.7c3.3-0.7,4.3-2.5,4.3-5.2
		c0-17,0-34-0.1-51c0-1.6-1.1-3.4-2.2-4.7C537.9,80.3,536,78.6,533.9,76.4z"/>
	<path class="st0" d="M1253.4,76.4c-1.6,1.1-2.8,2-4.1,2.9c0,17.8,0,35.6,0,53.5c2.3,2.6,4.7,5.1,6.8,7.5
		c-6.2,6.2-12,12.1-18.3,18.5c-5.8-6.5-11.7-13.2-17.7-19.9c2.1-2.2,3.8-4,5.5-5.8c0-14.5,0-29,0-43.5c-3.7-4.1-7.3-8.2-11.1-12.5
		c-2.7,2.1-5.1,4-8.1,6.4c1.1-4,11.1-13.2,24.4-23.2c2.7,2.9,5.5,5.9,8.3,8.9c2.7,2.9,5.4,5.8,8.4,8.9c7.8-6.1,15.4-11.9,23.3-18
		c5.7,6.1,11.1,11.9,16.9,18.1c8-6.2,15.8-12.4,24-18.9c5.6,6.2,11.1,12.3,16.8,18.5c3.2-2.1,6.2-4,9.1-6c0.2,0.3,0.5,0.7,0.7,1
		c-2.7,2.3-5.4,4.6-8.4,7.2c0,1.8,0,3.7,0,5.7c0,12.2,0.3,24.3-0.1,36.5c-0.2,5.7,1.5,9.9,5.5,13.7c1.1,1,1.7,2.5,2.6,3.8
		c2.9-2.1,4.8-3.5,7-5.2c-0.7,3.3-16.1,18.4-24.2,23.9c-2.9-3.2-5.9-6.5-8.9-9.7c-3-3.3-6.1-6.6-9-9.8c1.4-2.5,3-4.4,3.7-6.7
		c0.6-2.2,0.2-4.6,0.2-7c0-10-0.1-20,0.1-30c0.1-3.6-0.9-6.4-3.4-8.9c-3.3-3.3-6.4-6.7-9.6-10.3c-1.5,1.3-2.8,2.4-4.4,3.9
		c0,1.5,0,3.4,0,5.2c0,13.7,0.2,27.3,0,41c-0.1,4.6,0.5,8.6,4.3,11.6c0.9,0.7,1.4,1.8,2.1,2.7c-5.9,5.9-11.7,11.6-18,17.9
		c-5.5-6.1-11-12.2-16.9-18.9c6.2-3.8,4.9-9.8,4.9-15.3c0-9.7-0.1-19.3,0.1-29c0-3-0.8-5.5-2.8-7.7
		C1259.8,83.9,1256.8,80.3,1253.4,76.4z"/>
	<path class="st0" d="M158.5,139.8c2-1.4,3.9-2.6,5.7-3.9c0.3,0.4,0.5,0.7,0.8,1.1c-7.9,7.5-17.1,13.6-25.7,21.1
		c-5.7-5.1-11.2-10.1-16.7-15.2c-2.2,1.3-4.1,2.4-6,3.5c-0.2-0.3-0.5-0.6-0.7-0.9c3.1-4.2,8.5-5.8,12-10.2c0-1.3,0-2.9,0-4.6
		c0-29-0.1-58,0.1-86.9c0-4.6-0.6-8.6-5.9-11.2c10-7.7,19.5-15,29.9-23c0,23.3,0,45.2,0,68.3c8.2-7,15.6-13.3,23.3-19.8
		c6.2,6.8,12.1,13.3,18.1,20c2.8-1.8,5.3-3.4,7.9-5.1c0.3,0.3,0.5,0.6,0.8,0.9c-0.9,0.9-1.7,2.1-2.8,2.8c-3.8,2.2-4.6,5.4-4.6,9.7
		c0,18.8-0.1,37.6-0.6,56.4c-0.3,11.8-4.1,22.2-13.9,29.7c-8.2,6.3-17.5,8.6-27.7,7.6c-0.5,0-0.9-0.3-1.4-0.5
		c-0.1-0.1-0.2-0.3-0.4-0.6c0.2-0.3,0.4-0.8,0.8-0.9c12-4.3,17.7-13.5,18.3-25.5c1-21.3,1.1-42.6,1.6-63.3c-4.3-5.3-8-9.9-12-14.8
		c-2.4,2.2-4.7,4.1-7.2,6.4c0,3.1,0,6.4,0,9.7c0,12.2,0,24.3,0,36.5C152.1,134.4,152.1,134.4,158.5,139.8z"/>
	<path class="st0" d="M955.8,7.5c0,31,0,60.7,0,90.5c0.4,0.2,0.8,0.3,1.2,0.5c9.3-13.4,18.5-26.8,28.1-40.7c8.8,8.2,17.6,9,26.7,0.8
		c-0.8,9.3-3.7,17.3-11.3,22.4c-9.3,6.2-18.1,2.6-26.5-2.7c-2.3,1.1-1.6,2.5-0.6,4c2.8,4.2,5.4,8.4,8.2,12.5
		c9.4,14.1,18.8,28.3,28.2,42.4c0.5,0.7,1,1.3,1.8,2.4c2.7-2.1,5.2-4.1,7.8-6.1c0.3,0.4,0.7,0.9,1,1.3c-8.9,7.8-17.7,15.6-27.3,24
		c-12.2-19.5-24.3-38.7-36.3-57.8c-0.3,0.1-0.6,0.2-1,0.2c0,3.6,0,7.2,0,10.7c0,4.2,0.5,8.4-0.1,12.5c-1,7.2,2.7,11.5,8,15.6
		c2.1-1.4,4.2-2.9,6.2-4.3c0.3,0.4,0.6,0.8,0.9,1.3c-8.2,7.2-16.5,14.5-25,22c-5.9-5.4-11.5-10.6-17.2-15.8c-2.4,2-4.5,3.7-6.6,5.4
		c-0.4-3.6,2.4-4.4,4.1-6.1c1.8-1.8,3.7-3.3,6-5.2c0-1.5,0-3.1,0-4.7c0-29.1,0-58.3,0-87.4c0-1.3,0-2.7-0.1-4
		c-0.4-4.8-1.5-9.3-7.6-11.7C935,22.2,944.8,15.2,955.8,7.5z"/>
	<path class="st0" d="M844.4,135.4c-14.1,8-28,15.9-42.1,23.9c-8-6.7-15.9-13.3-24-20.1c-2.2,1.6-4.3,3.2-6.5,4.8
		c-0.3-0.3-0.6-0.7-0.9-1c1.8-1.9,3.7-3.8,6.1-6.2c0-18.3,0-37.2,0-56c13.6-7.3,26.7-14.4,40.4-21.9c8.3,7.1,16.8,14.5,25.6,22.1
		c2.4-2,4.7-4,7-5.9c0.4,0.4,0.7,0.7,1.1,1.1c-1.1,1.2-2,2.6-3.3,3.6c-2.5,1.9-3.2,4.3-3.2,7.4c0.1,14.2,0.1,28.3,0,42.5
		C844.7,131.5,844.5,133.4,844.4,135.4z M820.7,89.5c-6.3-5.8-12.5-11.5-19.5-17.8c0,19.7,0,38.3,0,56.7
		c6.4,5.7,12.6,11.3,19.5,17.4C820.7,126.6,820.7,108.2,820.7,89.5z"/>
	<path class="st0" d="M1476.9,90.3c5.1,4.2,10,8.2,15.1,12.3c0,11.1,0,22.2,0,33.3c-12,7.5-23.8,14.9-36.2,22.6
		c-1.2-1-2.5-2.5-4.1-3.5c-2.9-1.6-5.8-3.2-8.9-3.9c-3.1-0.7-6.3,1.6-7.2,4.2c-1.2,3.1,0.2,5.5,2.5,7.5c0.8,0.7,1.7,1.5,3.5,3
		c-2.2-0.2-3.4-0.1-4.3-0.4c-10.6-3.8-15.9-16.2-10.7-26.2c2.4-4.6,6.1-8.7,9.4-12.8c2-2.5,4.3-4.6,6.8-7.3
		c-3.9-3.6-7.5-7.2-11.4-10.5c-2.4-2-3.2-4.3-3.2-7.4c0.2-7,0.1-14,0.1-20.6c12.5-7.5,24.4-14.7,36.8-22.1c1.3,1.1,2.7,2.4,4.3,3.6
		c3.3,2.6,6.8,4,11.1,3.1c4.2-0.9,6.9-3.1,7.7-7.4c0.1-0.6,0.4-1.3,0.6-1.9c0-0.1,0.3-0.1,1.1-0.4c0.4,1.8,1.1,3.6,1.2,5.5
		c0.3,5.2-1.4,9.9-4,14.2C1483.8,80.2,1480.5,85,1476.9,90.3z M1469.7,143c0-10.1,0-20,0-30c-3-2.7-5.9-5.2-9.1-8
		c-9.5,9.6-19.4,17.8-27.3,28.1C1451.6,125.8,1455.5,126.9,1469.7,143z M1458.7,103.2c7.8-4.6,20.7-18.5,22.3-23.9
		c-12.8,8.7-22,2.5-30.5-7.9c0,8.9,0,16.8,0,24.8C1453.3,98.6,1455.9,100.8,1458.7,103.2z"/>
	<path class="st0" d="M255.8,59.2c6.3,10.9,12.4,21.6,18.8,32.6c-1.6,1.3-2.9,2.4-4.3,3.5c-10,7.4-20.1,14.8-30.1,22.2
		c-3.6,2.6-4.1,6.9-1,9.8c5.3,5.1,10.7,10,16.5,15.4c7.4-5.7,14.8-11.4,22.2-17.1c-1.4,3.9-30.4,27.7-39.7,33.4
		c-7.6-6.8-15.3-13.8-23.2-20.8c-2.5,2-4.9,3.8-8,6.2c0.7-4.8,4.8-5.3,6.8-8.4c0-17.1,0-34.9,0-52.7
		C227.8,75.3,241.5,67.4,255.8,59.2z M238,73.4c-1.2,7.3-0.9,39.3,0.3,42.8c5.8-4.2,11.5-8.4,17.4-12.7
		C249.7,93.4,244,83.7,238,73.4z"/>
	<path class="st0" d="M1379.8,159.1c-7.7-6.9-15.4-13.8-23.2-20.8c-2.5,1.9-5,3.7-8.3,6.1c0.8-5,5.5-5.2,7.3-8.3c0-17.8,0-35.6,0-53
		c14-8,27.5-15.8,41.7-23.9c6.2,10.7,12.4,21.5,19,32.8c-12.4,9.2-24.7,18.3-37.1,27.5c0,1.9,0,3.9,0,6.4c5.8,5.4,11.8,11,18,16.9
		c7.6-5.9,14.9-11.5,22.1-17.1c0.6,0.5,0.8,0.6,0.8,0.8c0.1,0.1,0.1,0.3,0,0.4c-0.1,0.3-0.2,0.7-0.5,0.9
		c-12.2,9.8-24.4,19.5-36.7,29.3C1382.2,157.7,1381.2,158.3,1379.8,159.1z M1397.3,103.5c-6-10.1-11.6-19.7-17.9-30.3
		c0,15.2,0,29,0,43.4C1385.7,112,1391.4,107.9,1397.3,103.5z"/>
	<path class="st0" d="M906.5,60c6.2,4.8,12.5,6.7,18.8,0.1c2.2,7.6-1.9,17.5-8.9,22.6c-7,5-12.7,4.3-23.1-3.2
		c-0.2,1.2-0.5,2.3-0.5,3.3c0,15.8,0,31.6-0.1,47.5c0,2.7,0.6,4.9,2.8,6.6c2.1,1.7,4.1,3.4,6.4,5.4c2.8-2.1,5.5-4.1,8.2-6.1
		c0.3,0.4,0.6,0.7,0.8,1.1c-7.9,7.7-16.8,14.3-25.5,21.7c-6.6-6-12.9-11.6-19.3-17.4c-2.6,2.1-4.8,3.9-7,5.7c-0.4-0.3-0.7-0.7-1.1-1
		c1.1-1.2,1.9-2.7,3.2-3.5c5.4-3.5,7.3-8.2,6.9-14.7c-0.6-10.5-0.2-21-0.1-31.5c0-10.9,0-10.9-7.9-19c-2.2,1.7-4.4,3.4-7.4,5.7
		c0.4-1.7,0.3-2.6,0.7-3c7.7-7,15.5-14,23.7-21.3c4.6,5.5,9,10.7,13.8,16.4C896.3,70.3,901.3,65.3,906.5,60z"/>
	<path class="st0" d="M487.8,127.2c-13.4,10.6-26.7,21.2-40.5,32.2c-7.9-7.1-15.7-14.1-23.5-21c-2.6,2-4.9,3.7-7.2,5.4
		c-0.3-0.3-0.6-0.7-0.9-1c0.9-1,1.7-2.2,2.8-2.8c3.6-2.2,4.4-5.3,4.3-9.3c-0.2-14.2-0.1-28.3-0.1-42.5c0-1.7,0-3.3,0-4.8
		c14-8,27.7-15.9,41.9-24c6.2,10.8,12.4,21.5,18.9,32.9c-12.4,9.2-24.7,18.3-36.8,27.2c-1.3,4.4,0.1,7.5,3.4,10.3
		c4.8,4.1,9.3,8.5,14.4,13.2c7.5-5.8,14.8-11.5,22.1-17.2C487,126.1,487.4,126.6,487.8,127.2z M464.5,103.5
		c-6-10.2-11.6-19.9-17.3-29.6c-0.2,0.1-0.4,0.2-0.6,0.4c0,13.9,0,27.7,0,42.4C452.7,112.1,458.4,108,464.5,103.5z"/>
	<path class="st0" d="M1162.8,76.4c-2.2,1.9-4.2,3.5-6.2,5.2c0-4.3,3.7-5.4,5.9-7.7c2.6-2.6,5.4-4.9,8.2-7.3
		c2.6-2.3,5.3-4.4,8.2-6.9c3.1,3.5,5.9,6.7,8.7,9.9c2.7,3.1,5.4,6.3,8.2,9.6c2.9-2.1,5.4-4,8-5.9c0.3,0.4,0.6,0.7,0.9,1.1
		c-2.4,2.3-4.8,4.6-7.3,7.1c-0.1,0.4-0.3,1.1-0.3,1.7c0,15-0.1,30,0,44.9c0,1.4,0.4,3.1,1.2,4.1c2.4,3.2,5.1,6.1,7.9,9.4
		c2.5-1.9,4.7-3.6,7.5-5.7c-1,3.7-16.1,17.8-23.3,22.3c-5.2-5.9-10.6-12-16-18.2c-2.5,2-4.9,3.9-7.2,5.8c-0.4-0.4-0.7-0.8-1.1-1.2
		c2.1-2,4.2-4.1,6.8-6.6c0-3.1,0-6.7,0-10.4c0-12-0.1-24,0-36c0-2.5-0.5-4.5-2.2-6.3C1168,82.6,1165.4,79.5,1162.8,76.4z"/>
	<path class="st0" d="M1194.8,38.2c-6.2,5.6-11.9,10.8-18.2,16.5c-5-5.5-9.7-10.7-14.8-16.3c6.2-5.7,11.9-10.9,18.1-16.6
		C1184.9,27.3,1189.6,32.5,1194.8,38.2z"/>
</g>
</svg>
